<?xml version="1.0" encoding="utf-8" standalone="no"?>
<!DOCTYPE svg PUBLIC "-//W3C//DTD SVG 1.1//EN"
  "http://www.w3.org/Graphics/SVG/1.1/DTD/svg11.dtd">
<svg xmlns:xlink="http://www.w3.org/1999/xlink" width="414pt" height="180pt" viewBox="0 0 414 180" xmlns="http://www.w3.org/2000/svg" version="1.1">
 <metadata>
  <rdf:RDF xmlns:dc="http://purl.org/dc/elements/1.1/" xmlns:cc="http://creativecommons.org/ns#" xmlns:rdf="http://www.w3.org/1999/02/22-rdf-syntax-ns#">
   <cc:Work>
    <dc:type rdf:resource="http://purl.org/dc/dcmitype/StillImage"/>
    <dc:date>2026-09-24T13:31:07.909363</dc:date>
    <dc:format>image/svg+xml</dc:format>
    <dc:creator>
     <cc:Agent>
      <dc:title>Matplotlib v3.10.9, https://matplotlib.org/</dc:title>
     </cc:Agent>
    </dc:creator>
   </cc:Work>
  </rdf:RDF>
 </metadata>
 <defs>
  <style type="text/css">*{stroke-linejoin: round; stroke-linecap: butt}</style>
 </defs>
 <g id="figure_1">
  <g id="patch_1">
   <path d="M 0 180 
L 414 180 
L 414 0 
L 0 0 
L 0 180 
z
" style="fill: none"/>
  </g>
  <g id="axes_1">
   <g id="patch_2">
    <path d="M 58.11 139.811563 
L 403.2 139.811563 
L 403.2 10.8 
L 58.11 10.8 
L 58.11 139.811563 
z
" style="fill: none"/>
   </g>
   <g id="matplotlib.axis_1">
    <g id="xtick_1">
     <g id="line2d_1">
      <defs>
       <path id="mf37e5b07b8" d="M 0 0 
L 0 3.5 
" style="stroke: #000000; stroke-width: 0.8"/>
      </defs>
      <g>
       <use xlink:href="#mf37e5b07b8" x="91.310949" y="139.811563" style="stroke: #000000; stroke-width: 0.8"/>
      </g>
     </g>
     <g id="text_1">
      <!-- 225 -->
      <g transform="translate(82.721574 153.650156) scale(0.09 -0.09)">
       <defs>
        <path id="DejaVuSans-32" d="M 1228 531 
L 3431 531 
L 3431 0 
L 469 0 
L 469 531 
Q 828 903 1448 1529 
Q 2069 2156 2228 2338 
Q 2531 2678 2651 2914 
Q 2772 3150 2772 3378 
Q 2772 3750 2511 3984 
Q 2250 4219 1831 4219 
Q 1534 4219 1204 4116 
Q 875 4013 500 3803 
L 500 4441 
Q 881 4594 1212 4672 
Q 1544 4750 1819 4750 
Q 2544 4750 2975 4387 
Q 3406 4025 3406 3419 
Q 3406 3131 3298 2873 
Q 3191 2616 2906 2266 
Q 2828 2175 2409 1742 
Q 1991 1309 1228 531 
z
" transform="scale(0.015625)"/>
        <path id="DejaVuSans-35" d="M 691 4666 
L 3169 4666 
L 3169 4134 
L 1269 4134 
L 1269 2991 
Q 1406 3038 1543 3061 
Q 1681 3084 1819 3084 
Q 2600 3084 3056 2656 
Q 3513 2228 3513 1497 
Q 3513 744 3044 326 
Q 2575 -91 1722 -91 
Q 1428 -91 1123 -41 
Q 819 9 494 109 
L 494 744 
Q 775 591 1075 516 
Q 1375 441 1709 441 
Q 2250 441 2565 725 
Q 2881 1009 2881 1497 
Q 2881 1984 2565 2268 
Q 2250 2553 1709 2553 
Q 1456 2553 1204 2497 
Q 953 2441 691 2322 
L 691 4666 
z
" transform="scale(0.015625)"/>
       </defs>
       <use xlink:href="#DejaVuSans-32"/>
       <use xlink:href="#DejaVuSans-32" transform="translate(63.623047 0)"/>
       <use xlink:href="#DejaVuSans-35" transform="translate(127.246094 0)"/>
      </g>
     </g>
    </g>
    <g id="xtick_2">
     <g id="line2d_2">
      <g>
       <use xlink:href="#mf37e5b07b8" x="149.351159" y="139.811563" style="stroke: #000000; stroke-width: 0.8"/>
      </g>
     </g>
     <g id="text_2">
      <!-- 230 -->
      <g transform="translate(140.761784 153.650156) scale(0.09 -0.09)">
       <defs>
        <path id="DejaVuSans-33" d="M 2597 2516 
Q 3050 2419 3304 2112 
Q 3559 1806 3559 1356 
Q 3559 666 3084 287 
Q 2609 -91 1734 -91 
Q 1441 -91 1130 -33 
Q 819 25 488 141 
L 488 750 
Q 750 597 1062 519 
Q 1375 441 1716 441 
Q 2309 441 2620 675 
Q 2931 909 2931 1356 
Q 2931 1769 2642 2001 
Q 2353 2234 1838 2234 
L 1294 2234 
L 1294 2753 
L 1863 2753 
Q 2328 2753 2575 2939 
Q 2822 3125 2822 3475 
Q 2822 3834 2567 4026 
Q 2313 4219 1838 4219 
Q 1578 4219 1281 4162 
Q 984 4106 628 3988 
L 628 4550 
Q 988 4650 1302 4700 
Q 1616 4750 1894 4750 
Q 2613 4750 3031 4423 
Q 3450 4097 3450 3541 
Q 3450 3153 3228 2886 
Q 3006 2619 2597 2516 
z
" transform="scale(0.015625)"/>
        <path id="DejaVuSans-30" d="M 2034 4250 
Q 1547 4250 1301 3770 
Q 1056 3291 1056 2328 
Q 1056 1369 1301 889 
Q 1547 409 2034 409 
Q 2525 409 2770 889 
Q 3016 1369 3016 2328 
Q 3016 3291 2770 3770 
Q 2525 4250 2034 4250 
z
M 2034 4750 
Q 2819 4750 3233 4129 
Q 3647 3509 3647 2328 
Q 3647 1150 3233 529 
Q 2819 -91 2034 -91 
Q 1250 -91 836 529 
Q 422 1150 422 2328 
Q 422 3509 836 4129 
Q 1250 4750 2034 4750 
z
" transform="scale(0.015625)"/>
       </defs>
       <use xlink:href="#DejaVuSans-32"/>
       <use xlink:href="#DejaVuSans-33" transform="translate(63.623047 0)"/>
       <use xlink:href="#DejaVuSans-30" transform="translate(127.246094 0)"/>
      </g>
     </g>
    </g>
    <g id="xtick_3">
     <g id="line2d_3">
      <g>
       <use xlink:href="#mf37e5b07b8" x="207.391369" y="139.811563" style="stroke: #000000; stroke-width: 0.8"/>
      </g>
     </g>
     <g id="text_3">
      <!-- 235 -->
      <g transform="translate(198.801994 153.650156) scale(0.09 -0.09)">
       <use xlink:href="#DejaVuSans-32"/>
       <use xlink:href="#DejaVuSans-33" transform="translate(63.623047 0)"/>
       <use xlink:href="#DejaVuSans-35" transform="translate(127.246094 0)"/>
      </g>
     </g>
    </g>
    <g id="xtick_4">
     <g id="line2d_4">
      <g>
       <use xlink:href="#mf37e5b07b8" x="265.431579" y="139.811563" style="stroke: #000000; stroke-width: 0.8"/>
      </g>
     </g>
     <g id="text_4">
      <!-- 240 -->
      <g transform="translate(256.842204 153.650156) scale(0.09 -0.09)">
       <defs>
        <path id="DejaVuSans-34" d="M 2419 4116 
L 825 1625 
L 2419 1625 
L 2419 4116 
z
M 2253 4666 
L 3047 4666 
L 3047 1625 
L 3713 1625 
L 3713 1100 
L 3047 1100 
L 3047 0 
L 2419 0 
L 2419 1100 
L 313 1100 
L 313 1709 
L 2253 4666 
z
" transform="scale(0.015625)"/>
       </defs>
       <use xlink:href="#DejaVuSans-32"/>
       <use xlink:href="#DejaVuSans-34" transform="translate(63.623047 0)"/>
       <use xlink:href="#DejaVuSans-30" transform="translate(127.246094 0)"/>
      </g>
     </g>
    </g>
    <g id="xtick_5">
     <g id="line2d_5">
      <g>
       <use xlink:href="#mf37e5b07b8" x="323.471789" y="139.811563" style="stroke: #000000; stroke-width: 0.8"/>
      </g>
     </g>
     <g id="text_5">
      <!-- 245 -->
      <g transform="translate(314.882414 153.650156) scale(0.09 -0.09)">
       <use xlink:href="#DejaVuSans-32"/>
       <use xlink:href="#DejaVuSans-34" transform="translate(63.623047 0)"/>
       <use xlink:href="#DejaVuSans-35" transform="translate(127.246094 0)"/>
      </g>
     </g>
    </g>
    <g id="xtick_6">
     <g id="line2d_6">
      <g>
       <use xlink:href="#mf37e5b07b8" x="381.511999" y="139.811563" style="stroke: #000000; stroke-width: 0.8"/>
      </g>
     </g>
     <g id="text_6">
      <!-- 250 -->
      <g transform="translate(372.922624 153.650156) scale(0.09 -0.09)">
       <use xlink:href="#DejaVuSans-32"/>
       <use xlink:href="#DejaVuSans-35" transform="translate(63.623047 0)"/>
       <use xlink:href="#DejaVuSans-30" transform="translate(127.246094 0)"/>
      </g>
     </g>
    </g>
    <g id="text_7">
     <!-- Altitude [km] -->
     <g transform="translate(197.860469 167.120313) scale(0.1 -0.1)">
      <defs>
       <path id="DejaVuSans-41" d="M 2188 4044 
L 1331 1722 
L 3047 1722 
L 2188 4044 
z
M 1831 4666 
L 2547 4666 
L 4325 0 
L 3669 0 
L 3244 1197 
L 1141 1197 
L 716 0 
L 50 0 
L 1831 4666 
z
" transform="scale(0.015625)"/>
       <path id="DejaVuSans-6c" d="M 603 4863 
L 1178 4863 
L 1178 0 
L 603 0 
L 603 4863 
z
" transform="scale(0.015625)"/>
       <path id="DejaVuSans-74" d="M 1172 4494 
L 1172 3500 
L 2356 3500 
L 2356 3053 
L 1172 3053 
L 1172 1153 
Q 1172 725 1289 603 
Q 1406 481 1766 481 
L 2356 481 
L 2356 0 
L 1766 0 
Q 1100 0 847 248 
Q 594 497 594 1153 
L 594 3053 
L 172 3053 
L 172 3500 
L 594 3500 
L 594 4494 
L 1172 4494 
z
" transform="scale(0.015625)"/>
       <path id="DejaVuSans-69" d="M 603 3500 
L 1178 3500 
L 1178 0 
L 603 0 
L 603 3500 
z
M 603 4863 
L 1178 4863 
L 1178 4134 
L 603 4134 
L 603 4863 
z
" transform="scale(0.015625)"/>
       <path id="DejaVuSans-75" d="M 544 1381 
L 544 3500 
L 1119 3500 
L 1119 1403 
Q 1119 906 1312 657 
Q 1506 409 1894 409 
Q 2359 409 2629 706 
Q 2900 1003 2900 1516 
L 2900 3500 
L 3475 3500 
L 3475 0 
L 2900 0 
L 2900 538 
Q 2691 219 2414 64 
Q 2138 -91 1772 -91 
Q 1169 -91 856 284 
Q 544 659 544 1381 
z
M 1991 3584 
L 1991 3584 
z
" transform="scale(0.015625)"/>
       <path id="DejaVuSans-64" d="M 2906 2969 
L 2906 4863 
L 3481 4863 
L 3481 0 
L 2906 0 
L 2906 525 
Q 2725 213 2448 61 
Q 2172 -91 1784 -91 
Q 1150 -91 751 415 
Q 353 922 353 1747 
Q 353 2572 751 3078 
Q 1150 3584 1784 3584 
Q 2172 3584 2448 3432 
Q 2725 3281 2906 2969 
z
M 947 1747 
Q 947 1113 1208 752 
Q 1469 391 1925 391 
Q 2381 391 2643 752 
Q 2906 1113 2906 1747 
Q 2906 2381 2643 2742 
Q 2381 3103 1925 3103 
Q 1469 3103 1208 2742 
Q 947 2381 947 1747 
z
" transform="scale(0.015625)"/>
       <path id="DejaVuSans-65" d="M 3597 1894 
L 3597 1613 
L 953 1613 
Q 991 1019 1311 708 
Q 1631 397 2203 397 
Q 2534 397 2845 478 
Q 3156 559 3463 722 
L 3463 178 
Q 3153 47 2828 -22 
Q 2503 -91 2169 -91 
Q 1331 -91 842 396 
Q 353 884 353 1716 
Q 353 2575 817 3079 
Q 1281 3584 2069 3584 
Q 2775 3584 3186 3129 
Q 3597 2675 3597 1894 
z
M 3022 2063 
Q 3016 2534 2758 2815 
Q 2500 3097 2075 3097 
Q 1594 3097 1305 2825 
Q 1016 2553 972 2059 
L 3022 2063 
z
" transform="scale(0.015625)"/>
       <path id="DejaVuSans-20" transform="scale(0.015625)"/>
       <path id="DejaVuSans-5b" d="M 550 4863 
L 1875 4863 
L 1875 4416 
L 1125 4416 
L 1125 -397 
L 1875 -397 
L 1875 -844 
L 550 -844 
L 550 4863 
z
" transform="scale(0.015625)"/>
       <path id="DejaVuSans-6b" d="M 581 4863 
L 1159 4863 
L 1159 1991 
L 2875 3500 
L 3609 3500 
L 1753 1863 
L 3688 0 
L 2938 0 
L 1159 1709 
L 1159 0 
L 581 0 
L 581 4863 
z
" transform="scale(0.015625)"/>
       <path id="DejaVuSans-6d" d="M 3328 2828 
Q 3544 3216 3844 3400 
Q 4144 3584 4550 3584 
Q 5097 3584 5394 3201 
Q 5691 2819 5691 2113 
L 5691 0 
L 5113 0 
L 5113 2094 
Q 5113 2597 4934 2840 
Q 4756 3084 4391 3084 
Q 3944 3084 3684 2787 
Q 3425 2491 3425 1978 
L 3425 0 
L 2847 0 
L 2847 2094 
Q 2847 2600 2669 2842 
Q 2491 3084 2119 3084 
Q 1678 3084 1418 2786 
Q 1159 2488 1159 1978 
L 1159 0 
L 581 0 
L 581 3500 
L 1159 3500 
L 1159 2956 
Q 1356 3278 1631 3431 
Q 1906 3584 2284 3584 
Q 2666 3584 2933 3390 
Q 3200 3197 3328 2828 
z
" transform="scale(0.015625)"/>
       <path id="DejaVuSans-5d" d="M 1947 4863 
L 1947 -844 
L 622 -844 
L 622 -397 
L 1369 -397 
L 1369 4416 
L 622 4416 
L 622 4863 
L 1947 4863 
z
" transform="scale(0.015625)"/>
      </defs>
      <use xlink:href="#DejaVuSans-41"/>
      <use xlink:href="#DejaVuSans-6c" transform="translate(68.408203 0)"/>
      <use xlink:href="#DejaVuSans-74" transform="translate(96.191406 0)"/>
      <use xlink:href="#DejaVuSans-69" transform="translate(135.400391 0)"/>
      <use xlink:href="#DejaVuSans-74" transform="translate(163.183594 0)"/>
      <use xlink:href="#DejaVuSans-75" transform="translate(202.392578 0)"/>
      <use xlink:href="#DejaVuSans-64" transform="translate(265.771484 0)"/>
      <use xlink:href="#DejaVuSans-65" transform="translate(329.248047 0)"/>
      <use xlink:href="#DejaVuSans-20" transform="translate(390.771484 0)"/>
      <use xlink:href="#DejaVuSans-5b" transform="translate(422.558594 0)"/>
      <use xlink:href="#DejaVuSans-6b" transform="translate(461.572266 0)"/>
      <use xlink:href="#DejaVuSans-6d" transform="translate(519.482422 0)"/>
      <use xlink:href="#DejaVuSans-5d" transform="translate(616.894531 0)"/>
     </g>
    </g>
   </g>
   <g id="matplotlib.axis_2">
    <g id="ytick_1">
     <g id="line2d_7">
      <defs>
       <path id="mc6aa29d85b" d="M 0 0 
L -3.5 0 
" style="stroke: #000000; stroke-width: 0.8"/>
      </defs>
      <g>
       <use xlink:href="#mc6aa29d85b" x="58.11" y="67.43405" style="stroke: #000000; stroke-width: 0.8"/>
      </g>
     </g>
     <g id="text_8">
      <!-- $\mathdefault{10^{-12}}$ -->
      <g transform="translate(26 70.853347) scale(0.09 -0.09)">
       <defs>
        <path id="DejaVuSans-31" d="M 794 531 
L 1825 531 
L 1825 4091 
L 703 3866 
L 703 4441 
L 1819 4666 
L 2450 4666 
L 2450 531 
L 3481 531 
L 3481 0 
L 794 0 
L 794 531 
z
" transform="scale(0.015625)"/>
        <path id="DejaVuSans-2212" d="M 678 2272 
L 4684 2272 
L 4684 1741 
L 678 1741 
L 678 2272 
z
" transform="scale(0.015625)"/>
       </defs>
       <use xlink:href="#DejaVuSans-31" transform="translate(0 0.765625)"/>
       <use xlink:href="#DejaVuSans-30" transform="translate(63.623047 0.765625)"/>
       <use xlink:href="#DejaVuSans-2212" transform="translate(128.203125 39.046875) scale(0.7)"/>
       <use xlink:href="#DejaVuSans-31" transform="translate(186.855469 39.046875) scale(0.7)"/>
       <use xlink:href="#DejaVuSans-32" transform="translate(231.391602 39.046875) scale(0.7)"/>
      </g>
     </g>
    </g>
    <g id="ytick_2">
     <g id="line2d_8">
      <defs>
       <path id="m2c10941656" d="M 0 0 
L -2 0 
" style="stroke: #000000; stroke-width: 0.6"/>
      </defs>
      <g>
       <use xlink:href="#m2c10941656" x="58.11" y="120.688999" style="stroke: #000000; stroke-width: 0.6"/>
      </g>
     </g>
    </g>
    <g id="ytick_3">
     <g id="line2d_9">
      <g>
       <use xlink:href="#m2c10941656" x="58.11" y="107.272499" style="stroke: #000000; stroke-width: 0.6"/>
      </g>
     </g>
    </g>
    <g id="ytick_4">
     <g id="line2d_10">
      <g>
       <use xlink:href="#m2c10941656" x="58.11" y="97.753341" style="stroke: #000000; stroke-width: 0.6"/>
      </g>
     </g>
    </g>
    <g id="ytick_5">
     <g id="line2d_11">
      <g>
       <use xlink:href="#m2c10941656" x="58.11" y="90.369708" style="stroke: #000000; stroke-width: 0.6"/>
      </g>
     </g>
    </g>
    <g id="ytick_6">
     <g id="line2d_12">
      <g>
       <use xlink:href="#m2c10941656" x="58.11" y="84.336841" style="stroke: #000000; stroke-width: 0.6"/>
      </g>
     </g>
    </g>
    <g id="ytick_7">
     <g id="line2d_13">
      <g>
       <use xlink:href="#m2c10941656" x="58.11" y="79.236124" style="stroke: #000000; stroke-width: 0.6"/>
      </g>
     </g>
    </g>
    <g id="ytick_8">
     <g id="line2d_14">
      <g>
       <use xlink:href="#m2c10941656" x="58.11" y="74.817683" style="stroke: #000000; stroke-width: 0.6"/>
      </g>
     </g>
    </g>
    <g id="ytick_9">
     <g id="line2d_15">
      <g>
       <use xlink:href="#m2c10941656" x="58.11" y="70.920341" style="stroke: #000000; stroke-width: 0.6"/>
      </g>
     </g>
    </g>
    <g id="ytick_10">
     <g id="line2d_16">
      <g>
       <use xlink:href="#m2c10941656" x="58.11" y="44.498392" style="stroke: #000000; stroke-width: 0.6"/>
      </g>
     </g>
    </g>
    <g id="ytick_11">
     <g id="line2d_17">
      <g>
       <use xlink:href="#m2c10941656" x="58.11" y="31.081892" style="stroke: #000000; stroke-width: 0.6"/>
      </g>
     </g>
    </g>
    <g id="ytick_12">
     <g id="line2d_18">
      <g>
       <use xlink:href="#m2c10941656" x="58.11" y="21.562734" style="stroke: #000000; stroke-width: 0.6"/>
      </g>
     </g>
    </g>
    <g id="ytick_13">
     <g id="line2d_19">
      <g>
       <use xlink:href="#m2c10941656" x="58.11" y="14.179101" style="stroke: #000000; stroke-width: 0.6"/>
      </g>
     </g>
    </g>
    <g id="text_9">
     <!-- $\rho$ [kg/m$^3$] -->
     <g transform="translate(19.9 99.055781) rotate(-90) scale(0.1 -0.1)">
      <defs>
       <path id="DejaVuSans-Oblique-3c1" d="M 1203 2875 
Q 1453 3194 1981 3475 
Q 2188 3584 2756 3584 
Q 3394 3584 3694 3078 
Q 3994 2572 3834 1747 
Q 3672 922 3175 415 
Q 2678 -91 2041 -91 
Q 1656 -91 1409 63 
Q 1163 213 1044 525 
L 681 -1331 
L 103 -1331 
L 697 1716 
Q 838 2438 1203 2875 
z
M 3238 1747 
Q 3359 2381 3169 2744 
Q 2978 3103 2522 3103 
Q 2066 3103 1734 2744 
Q 1403 2381 1281 1747 
Q 1156 1113 1347 750 
Q 1538 391 1994 391 
Q 2450 391 2781 750 
Q 3113 1113 3238 1747 
z
" transform="scale(0.015625)"/>
       <path id="DejaVuSans-67" d="M 2906 1791 
Q 2906 2416 2648 2759 
Q 2391 3103 1925 3103 
Q 1463 3103 1205 2759 
Q 947 2416 947 1791 
Q 947 1169 1205 825 
Q 1463 481 1925 481 
Q 2391 481 2648 825 
Q 2906 1169 2906 1791 
z
M 3481 434 
Q 3481 -459 3084 -895 
Q 2688 -1331 1869 -1331 
Q 1566 -1331 1297 -1286 
Q 1028 -1241 775 -1147 
L 775 -588 
Q 1028 -725 1275 -790 
Q 1522 -856 1778 -856 
Q 2344 -856 2625 -561 
Q 2906 -266 2906 331 
L 2906 616 
Q 2728 306 2450 153 
Q 2172 0 1784 0 
Q 1141 0 747 490 
Q 353 981 353 1791 
Q 353 2603 747 3093 
Q 1141 3584 1784 3584 
Q 2172 3584 2450 3431 
Q 2728 3278 2906 2969 
L 2906 3500 
L 3481 3500 
L 3481 434 
z
" transform="scale(0.015625)"/>
       <path id="DejaVuSans-2f" d="M 1625 4666 
L 2156 4666 
L 531 -594 
L 0 -594 
L 1625 4666 
z
" transform="scale(0.015625)"/>
      </defs>
      <use xlink:href="#DejaVuSans-Oblique-3c1" transform="translate(0 0.765625)"/>
      <use xlink:href="#DejaVuSans-20" transform="translate(63.476562 0.765625)"/>
      <use xlink:href="#DejaVuSans-5b" transform="translate(95.263672 0.765625)"/>
      <use xlink:href="#DejaVuSans-6b" transform="translate(134.277344 0.765625)"/>
      <use xlink:href="#DejaVuSans-67" transform="translate(192.1875 0.765625)"/>
      <use xlink:href="#DejaVuSans-2f" transform="translate(255.664062 0.765625)"/>
      <use xlink:href="#DejaVuSans-6d" transform="translate(289.355469 0.765625)"/>
      <use xlink:href="#DejaVuSans-33" transform="translate(387.724609 39.046875) scale(0.7)"/>
      <use xlink:href="#DejaVuSans-5d" transform="translate(434.995117 0.765625)"/>
     </g>
    </g>
   </g>
   <g id="line2d_20">
    <path d="M 381.512178 181 
L 381.517542 116.414675 
L 381.621762 123.764415 
L 381.663776 126.058331 
L 381.695371 120.756252 
L 381.766942 117.042701 
L 381.806812 120.366404 
L 381.827745 120.360533 
L 381.942095 112.301811 
L 381.966847 113.01301 
L 381.992206 112.862245 
L 382.186039 121.67909 
L 382.215964 121.517631 
L 382.439921 111.719134 
L 382.614241 123.167945 
L 382.761434 121.392453 
L 382.799233 121.739551 
L 382.837416 121.233721 
L 382.875971 120.296954 
L 382.993788 123.831081 
L 383.033747 123.356599 
L 383.11464 120.033802 
L 383.238277 120.575952 
L 383.364447 126.179464 
L 383.449842 125.639297 
L 383.579673 119.335645 
L 383.755611 119.873284 
L 383.800034 119.008767 
L 383.97917 111.674593 
L 384.06945 119.736603 
L 384.160091 119.597017 
L 384.205522 119.339257 
L 384.296552 120.395943 
L 384.34213 123.028889 
L 384.387738 121.44728 
L 384.433366 121.692793 
L 384.570259 118.724253 
L 384.752427 123.219748 
L 384.797837 123.036093 
L 384.843175 120.457063 
L 384.888431 123.249541 
L 384.933595 122.579215 
L 384.978657 124.867021 
L 385.068436 124.082038 
L 385.246348 127.136378 
L 385.55084 121.007489 
L 385.635864 122.191168 
L 385.677998 120.426831 
L 385.719868 121.185525 
L 385.761465 123.36353 
L 385.802779 121.231284 
L 385.884518 120.336843 
L 385.924925 123.258441 
L 385.965011 122.016262 
L 386.121962 119.664325 
L 386.27304 126.567789 
L 386.382162 129.882375 
L 386.346203 126.479655 
L 386.417695 129.745783 
L 386.55541 125.509754 
L 386.685682 132.178865 
L 386.71703 130.937183 
L 386.747877 131.160963 
L 386.778214 129.179875 
L 386.8661 130.213402 
L 386.922016 130.586688 
L 386.975731 127.820736 
L 387.001745 131.252326 
L 387.100037 130.956203 
L 387.145635 125.782772 
L 387.209455 128.353367 
L 387.229484 128.121816 
L 387.248882 128.26696 
L 387.267641 129.196473 
L 387.303224 125.838567 
L 387.320036 127.359836 
L 387.476607 118.056555 
L 387.380625 129.694895 
L 387.483706 119.725346 
L 387.456905 129.377052 
L 387.507696 117.925612 
L 387.412178 122.474684 
L 387.283481 129.952398 
L 387.24308 132.636576 
L 387.221643 128.397661 
L 387.199382 128.595219 
L 387.048502 121.032434 
L 386.991608 122.202015 
L 386.931415 123.951882 
L 386.900082 122.539922 
L 386.834944 115.577902 
L 386.801139 116.865163 
L 386.76651 120.646981 
L 386.694785 117.1013 
L 386.657689 117.462081 
L 386.541476 111.61379 
L 386.375054 120.261465 
L 386.33141 119.971609 
L 386.148736 125.698443 
L 386.101057 125.319987 
L 386.003307 122.207796 
L 385.902388 126.660558 
L 385.850749 125.705201 
L 385.745131 124.962845 
L 385.691159 125.860029 
L 385.636418 125.717062 
L 385.46762 124.594666 
L 385.409843 124.997338 
L 385.171303 131.164846 
L 384.921124 123.505746 
L 384.8568 123.273339 
L 384.791775 124.540312 
L 384.592546 120.95949 
L 384.52477 122.130364 
L 384.456319 119.27788 
L 384.387199 122.259938 
L 384.317415 121.682918 
L 384.246973 121.833191 
L 384.031762 124.936072 
L 383.810853 116.732948 
L 383.660492 110.612858 
L 383.5844 111.708125 
L 383.507709 111.187051 
L 383.430422 109.205487 
L 383.195044 117.08775 
L 383.115433 115.312357 
L 383.035257 116.926946 
L 382.626118 112.338329 
L 382.374265 117.985467 
L 382.203823 118.595966 
L 382.117862 116.561661 
L 381.857115 126.743221 
L 381.68098 123.550513 
L 381.592248 120.336539 
L 381.503082 121.327559 
L 381.323487 126.55036 
L 381.233075 122.347456 
L 380.959488 127.334364 
L 380.867539 124.322046 
L 380.682568 126.902167 
L 380.589565 122.415145 
L 380.496228 122.47587 
L 380.402567 125.268199 
L 380.308591 125.129966 
L 380.214311 126.711986 
L 380.119735 126.574276 
L 379.929736 124.61488 
L 379.834333 129.190306 
L 379.738673 128.939152 
L 379.450257 122.796147 
L 379.256877 121.46895 
L 379.159886 123.140924 
L 378.867815 116.772901 
L 378.672279 116.804916 
L 378.476168 115.44275 
L 378.082509 119.50634 
L 377.885109 125.476606 
L 377.687435 133.947401 
L 377.588522 132.144991 
L 377.489574 132.925903 
L 377.3906 128.831031 
L 377.291612 130.414779 
L 377.093633 127.217826 
L 376.994664 129.391682 
L 376.796817 128.033734 
L 376.599163 123.467438 
L 376.40178 125.787646 
L 376.20475 124.937134 
L 376.106393 125.706808 
L 375.910044 128.633595 
L 375.714254 130.612869 
L 375.421798 125.203668 
L 375.324681 125.289847 
L 374.938322 130.580828 
L 374.842309 127.502709 
L 374.651048 130.097284 
L 374.555819 130.067491 
L 374.460871 125.373685 
L 374.366215 126.093974 
L 374.271859 129.754385 
L 373.990693 126.42993 
L 373.25649 111.382889 
L 373.166456 111.734099 
L 373.076833 111.928531 
L 372.987629 111.288024 
L 372.635151 123.249785 
L 372.548157 123.256822 
L 372.46163 125.071514 
L 372.375577 124.361127 
L 372.204931 121.92909 
L 372.120352 123.680078 
L 372.036281 123.185341 
L 371.869691 119.913804 
L 371.705222 123.010323 
L 371.542933 121.297331 
L 371.303719 127.121605 
L 371.225137 124.691661 
L 371.147144 126.611017 
L 371.06975 124.303813 
L 370.99296 127.73549 
L 370.841223 124.432318 
L 370.766291 127.640563 
L 370.691991 125.958553 
L 370.54532 128.299327 
L 370.472962 124.930038 
L 370.330235 129.857975 
L 370.259879 127.338282 
L 370.190204 127.912018 
L 370.121217 127.795185 
L 369.918437 120.692854 
L 369.722041 116.916374 
L 369.532157 122.04902 
L 369.470332 121.87076 
L 369.409249 121.522508 
L 369.230498 116.686483 
L 369.172427 117.195854 
L 369.058574 121.079031 
L 369.002801 117.560144 
L 368.893581 125.394696 
L 368.840141 122.107119 
L 368.787487 124.20775 
L 368.735621 122.194702 
L 368.634272 121.025998 
L 368.536115 117.388094 
L 368.441174 122.225359 
L 368.394916 121.813474 
L 368.349469 122.568664 
L 368.218029 128.978917 
L 368.015452 118.911309 
L 367.833688 122.184677 
L 367.799846 121.925371 
L 367.672877 116.799934 
L 367.643234 117.137328 
L 367.61443 117.305738 
L 367.586465 116.010385 
L 367.559338 119.591038 
L 367.507601 124.855053 
L 367.459217 123.772862 
L 367.436283 120.09438 
L 367.352909 123.810448 
L 367.316229 123.0498 
L 367.214003 128.072305 
L 367.192226 129.754002 
L 367.165705 125.770522 
L 367.232581 107.321443 
L 367.129736 126.487767 
L 367.258448 113.213401 
L 367.272403 114.260649 
L 367.302321 109.239415 
L 367.334864 104.988991 
L 367.369964 108.536509 
L 367.468494 120.503687 
L 367.489992 119.65074 
L 367.53472 114.775147 
L 367.581709 120.5159 
L 367.606032 117.685417 
L 367.630899 119.811704 
L 367.6563 117.033379 
L 367.735631 113.040825 
L 367.79104 113.412037 
L 367.819474 113.57608 
L 367.968612 118.777199 
L 368.063358 116.567822 
L 368.095766 118.337766 
L 368.128573 118.075674 
L 368.368604 109.302731 
L 368.404261 109.9821 
L 368.549908 116.979312 
L 368.662049 109.516822 
L 368.69993 114.31343 
L 368.853691 121.199456 
L 368.971097 114.916583 
L 369.089999 120.470508 
L 369.129922 117.767408 
L 369.169972 118.059221 
L 369.250418 120.659228 
L 369.290796 120.377594 
L 369.331263 120.255925 
L 369.371811 118.189211 
L 369.453109 119.397685 
L 369.534612 121.347132 
L 369.657087 120.53157 
L 369.738774 125.334789 
L 369.779602 124.202236 
L 369.820407 123.776579 
L 369.861179 121.815656 
L 369.942591 122.538362 
L 369.983212 122.889535 
L 370.064236 125.547982 
L 370.104622 124.022104 
L 370.144911 125.140452 
L 370.185096 124.410048 
L 370.265115 116.804335 
L 370.344599 118.482213 
L 370.384117 117.587331 
L 370.423473 118.436 
L 370.462656 122.554393 
L 370.501659 120.229424 
L 370.579082 116.4006 
L 370.617483 117.413437 
L 370.693617 117.25476 
L 370.731331 121.376331 
L 370.806009 119.020189 
L 370.842954 120.576678 
L 371.093402 126.749438 
L 371.127913 125.129647 
L 371.162082 127.214526 
L 371.195902 127.630221 
L 371.229365 126.771457 
L 371.327533 121.523905 
L 371.359488 124.786848 
L 371.452941 127.151207 
L 371.483264 125.892937 
L 371.513159 121.321909 
L 371.600204 124.095119 
L 371.835844 116.320054 
L 371.882626 116.425913 
L 371.905209 118.939681 
L 371.948724 116.206706 
L 371.96964 117.018671 
L 372.009754 115.471509 
L 372.047527 118.194571 
L 372.065518 116.130751 
L 372.115828 119.342175 
L 372.174115 117.308098 
L 372.187075 115.945571 
L 372.232284 119.353228 
L 372.259071 119.304421 
L 372.273459 121.486802 
L 372.301318 116.619252 
L 372.302378 117.20096 
L 372.296423 110.880315 
L 372.237001 121.162601 
L 372.202914 118.322728 
L 372.14615 114.127716 
L 372.11287 115.806024 
L 372.0763 121.350649 
L 372.015251 119.343697 
L 371.993244 116.82269 
L 371.970405 120.126294 
L 371.922232 118.149589 
L 371.843719 123.747369 
L 371.787206 120.084681 
L 371.727354 121.372026 
L 371.696177 120.862014 
L 371.597645 117.545646 
L 371.563135 118.977988 
L 371.454616 122.673513 
L 371.378126 121.92162 
L 371.172477 116.355967 
L 370.993214 122.536227 
L 370.85025 118.161099 
L 370.700058 115.108378 
L 370.542701 120.423351 
L 370.48867 120.117306 
L 370.433856 118.798066 
L 370.264747 123.40615 
L 370.206836 123.674178 
L 370.088729 126.835338 
L 369.905928 123.211985 
L 369.716472 119.777481 
L 369.651863 122.066278 
L 369.586534 120.36423 
L 369.52049 121.383158 
L 369.31812 120.080292 
L 369.249268 120.108321 
L 369.109504 117.28689 
L 369.038602 117.862898 
L 368.894786 121.413306 
L 368.821885 121.291333 
L 368.748329 119.245887 
L 368.674124 119.691562 
L 368.599277 119.205333 
L 368.44768 123.065589 
L 368.370944 122.084972 
L 368.293592 120.714341 
L 368.137066 122.2873 
L 367.816931 133.023893 
L 367.735468 133.108138 
L 367.65345 132.056362 
L 367.570885 132.081219 
L 367.487783 132.318213 
L 367.404152 131.959321 
L 367.064502 119.003572 
L 366.978348 118.185105 
L 366.804604 122.501014 
L 366.628998 118.137171 
L 366.540517 119.199359 
L 366.451595 118.811926 
L 366.091662 125.951813 
L 365.725359 119.180598 
L 365.446788 124.518082 
L 365.353247 126.769851 
L 365.259379 124.76187 
L 365.165194 124.7736 
L 365.070702 125.38676 
L 364.785476 119.526077 
L 364.593956 120.605598 
L 364.497814 120.474329 
L 364.401428 119.705889 
L 364.304809 123.287888 
L 364.207965 122.912469 
L 364.110908 124.358619 
L 364.013645 122.109507 
L 363.818547 124.141506 
L 363.524609 118.767597 
L 363.426324 116.913016 
L 363.327901 119.313651 
L 363.22935 118.884129 
L 363.13068 120.287571 
L 362.933021 117.532839 
L 362.834051 118.78352 
L 362.635876 117.198332 
L 362.536689 116.350301 
L 362.437449 116.933446 
L 362.238841 114.575232 
L 362.139492 114.731841 
L 361.841378 124.43728 
L 361.742017 124.011052 
L 361.344895 115.997359 
L 361.14666 119.167378 
L 361.047657 118.552274 
L 360.948742 121.278964 
L 360.751219 116.541353 
L 360.554162 119.205227 
L 360.455833 115.149412 
L 360.357647 117.904393 
L 359.869192 108.446746 
L 359.675118 115.888473 
L 359.48189 114.30888 
L 359.385615 114.415876 
L 359.289577 112.882626 
L 358.7188 120.407 
L 358.437312 115.01851 
L 358.251254 111.437674 
L 358.158728 112.467686 
L 358.066548 110.588829 
L 357.701433 116.499539 
L 357.611096 115.274676 
L 357.342469 120.211689 
L 357.25375 118.297781 
L 357.165455 119.507095 
L 357.077593 116.041242 
L 356.990171 116.105223 
L 356.903196 116.896327 
L 356.816677 114.550471 
L 356.73062 118.575832 
L 356.645034 117.505691 
L 356.475298 113.285467 
L 356.307528 117.813636 
L 355.978102 111.251878 
L 355.657157 107.042702 
L 355.499972 109.123753 
L 355.345032 106.274679 
L 355.192374 102.432953 
L 354.967732 110.668789 
L 354.894028 108.409408 
L 354.676511 113.839559 
L 354.605221 114.056748 
L 354.395068 118.594261 
L 354.326275 121.601625 
L 354.258118 119.817667 
L 354.057525 115.857186 
L 353.991969 117.160408 
L 353.862844 112.702962 
L 353.799285 113.451516 
L 353.612663 117.496391 
L 353.551821 113.715342 
L 353.491668 115.794489 
L 353.432207 114.845844 
L 353.373443 118.9897 
L 353.315378 117.451084 
L 353.258017 114.960406 
L 353.201363 119.334891 
L 353.14542 119.1463 
L 353.090191 118.495781 
L 353.03568 118.714443 
L 352.928825 122.744701 
L 352.876489 122.708555 
L 352.824886 122.689938 
L 352.774017 122.20339 
L 352.625856 118.693757 
L 352.577959 119.029678 
L 352.263749 109.284528 
L 352.221885 109.973494 
L 351.98659 103.905841 
L 351.746349 116.731642 
L 351.684471 115.271665 
L 351.491407 102.405376 
L 351.397251 108.654807 
L 351.354509 106.691989 
L 351.334211 106.309114 
L 351.27757 106.638472 
L 351.104117 125.38738 
L 351.087607 121.018295 
L 351.051103 103.394417 
L 351.180212 110.881078 
L 351.274109 107.98159 
L 351.217813 113.314321 
L 351.289234 108.077223 
L 351.304764 108.165828 
L 351.320691 105.53923 
L 351.353703 108.894541 
L 351.388202 108.81186 
L 351.461415 114.595663 
L 351.519772 113.520436 
L 351.53984 109.435117 
L 351.622977 112.816756 
L 351.688115 110.234921 
L 351.732744 112.18199 
L 351.801335 117.637787 
L 351.848073 114.11838 
L 351.871723 114.86849 
L 352.017025 109.134859 
L 352.091475 107.602944 
L 352.116498 108.992839 
L 352.1668 108.705409 
L 352.192061 110.024462 
L 352.242758 105.253268 
L 352.293625 111.048775 
L 352.344592 109.457586 
L 352.446538 112.702976 
L 352.573282 109.654222 
L 352.648544 112.631898 
L 352.673449 109.766719 
L 352.698247 105.480911 
L 352.771909 106.831078 
L 352.938356 112.028052 
L 352.961385 112.380222 
L 352.984202 110.087714 
L 353.029165 112.847827 
L 353.051295 110.835581 
L 353.07318 113.273864 
L 353.11618 109.175909 
L 353.158098 110.367107 
L 353.238427 115.656369 
L 353.295359 111.834499 
L 353.313663 107.110821 
L 353.383309 112.703879 
L 353.490314 117.955567 
L 353.431584 111.612671 
L 353.503948 117.110255 
L 353.542225 108.34035 
L 353.615338 114.452194 
L 353.686591 123.812207 
L 353.517749 109.251491 
L 353.502736 111.398609 
L 353.436019 117.107646 
L 353.398628 111.427268 
L 353.378916 109.331466 
L 353.315683 114.177754 
L 353.293232 115.560569 
L 353.24626 114.31538 
L 353.170604 110.480999 
L 353.143993 113.772908 
L 353.116682 114.737234 
L 353.088671 112.674807 
L 353.059958 112.464675 
L 353.030544 110.296493 
L 352.969603 112.190514 
L 352.804898 118.710688 
L 352.769839 118.28944 
L 352.734075 115.533251 
L 352.660433 115.70104 
L 352.622556 118.651246 
L 352.544696 117.617529 
L 352.380582 120.646268 
L 352.29435 113.924855 
L 352.205351 115.988572 
L 352.159817 114.673734 
L 352.113596 115.437308 
L 352.019098 117.583026 
L 351.970827 117.25796 
L 351.921876 121.433358 
L 351.87225 119.641223 
L 351.82195 119.650588 
L 351.719342 117.487487 
L 351.66704 120.141035 
L 351.614076 118.210376 
L 351.560454 119.083416 
L 351.395666 114.202746 
L 351.33944 117.472468 
L 351.282571 116.985023 
L 351.225062 117.036303 
L 351.166917 118.662053 
L 350.928052 114.103896 
L 350.866782 114.13328 
L 350.804898 113.757737 
L 350.742403 116.462235 
L 350.679302 114.576496 
L 350.615597 112.588262 
L 350.551293 113.126543 
L 350.486394 113.589791 
L 350.420903 113.109014 
L 350.220919 109.555593 
L 350.153098 111.045391 
L 350.084706 109.453406 
L 350.015744 111.48382 
L 349.946217 110.904447 
L 349.876129 109.980406 
L 349.805483 104.757119 
L 349.734284 105.424037 
L 349.444026 113.862614 
L 349.37012 112.244113 
L 349.295688 114.286799 
L 349.220735 113.857909 
L 349.145267 113.330965 
L 349.069288 113.83281 
L 348.992804 110.841131 
L 348.915821 114.428039 
L 348.838344 111.541697 
L 348.760379 114.039114 
L 348.681931 113.52098 
L 348.603006 112.920383 
L 348.523612 114.359514 
L 348.443753 113.22923 
L 348.363435 115.867816 
L 348.282665 110.577273 
L 348.201449 111.643045 
L 348.119793 110.150871 
L 348.037702 113.360487 
L 347.872242 110.712857 
L 347.620945 108.480467 
L 347.536375 109.887333 
L 347.366065 116.029854 
L 347.280339 116.316529 
L 347.107783 114.888326 
L 347.020967 116.257941 
L 346.933803 115.66394 
L 346.758459 117.751053 
L 346.670295 115.364071 
L 346.581813 115.997723 
L 346.49302 112.751281 
L 346.403924 115.563056 
L 346.224854 113.353222 
L 346.044662 110.352374 
L 345.954162 109.633546 
L 345.77239 111.040496 
L 345.589636 109.448047 
L 345.497909 110.541204 
L 345.405957 108.446241 
L 345.036052 115.616896 
L 344.943091 115.394912 
L 344.849953 116.763374 
L 344.663176 114.971157 
L 344.475789 117.194527 
L 344.381888 117.401079 
L 344.287859 115.795323 
L 344.193712 119.357771 
L 344.005095 115.088623 
L 343.910643 116.243871 
L 343.626805 108.840225 
L 343.532056 109.109454 
L 343.437253 108.307722 
L 343.247507 108.986175 
L 343.152581 108.392691 
L 343.057628 110.752581 
L 342.867672 107.341151 
L 342.772684 107.490277 
L 342.677699 104.646497 
L 342.487762 106.486693 
L 342.297918 107.993033 
L 342.108225 108.05278 
L 342.013454 111.04787 
L 341.824099 108.865182 
L 341.729531 110.612862 
L 341.446349 102.751598 
L 341.352152 103.108978 
L 340.789518 115.866225 
L 340.696241 112.950085 
L 340.603128 113.895401 
L 340.510186 113.818974 
L 340.417422 111.349224 
L 340.140281 115.24413 
L 339.773732 107.336852 
L 339.682673 107.696089 
L 339.591859 106.959317 
L 339.410991 107.815224 
L 339.231179 104.975267 
L 339.141685 107.42304 
L 339.052474 106.181987 
L 338.963551 107.573088 
L 338.874923 106.833942 
L 338.786597 106.849335 
L 338.698577 106.961851 
L 338.610872 107.57312 
L 338.436425 104.30791 
L 338.263304 111.738001 
L 338.006222 108.716277 
L 337.921247 106.935818 
L 337.752405 100.939843 
L 337.668548 100.929683 
L 337.585073 101.227589 
L 337.501984 99.736103 
L 337.419285 102.779409 
L 337.336981 102.474485 
L 337.255075 100.841938 
L 337.092478 102.069544 
L 336.851675 97.811356 
L 336.772246 98.819661 
L 336.693242 98.663792 
L 336.614666 98.824859 
L 336.536521 96.797821 
L 336.3047 104.013042 
L 336.22831 100.138289 
L 336.152368 102.214831 
L 336.076878 100.735494 
L 335.853147 103.43512 
L 335.779495 102.47942 
L 335.706312 104.089033 
L 335.6336 101.853995 
L 335.561364 102.359122 
L 335.489605 102.866603 
L 335.277235 109.266165 
L 335.207426 109.494509 
L 335.138114 107.340012 
L 335.069303 110.691506 
L 335.000997 110.012742 
L 334.865917 110.687155 
L 334.79915 111.387804 
L 334.537329 105.416468 
L 334.473201 109.367578 
L 334.40961 106.490749 
L 334.346558 105.333661 
L 334.284048 106.209556 
L 334.160665 107.400075 
L 334.099796 111.378729 
L 334.039481 110.101644 
L 333.979722 108.578108 
L 333.803813 115.198897 
L 333.74631 115.050785 
L 333.577244 111.13796 
L 333.522045 111.428021 
L 333.467429 113.206105 
L 333.413398 110.494589 
L 333.359953 113.549773 
L 333.307099 111.145822 
L 333.152086 105.026579 
L 333.002423 111.692893 
L 332.719265 102.358749 
L 332.674172 105.711825 
L 332.629679 105.65842 
L 332.585787 109.239787 
L 332.542495 105.051201 
L 332.499803 104.824458 
L 332.457711 109.23929 
L 332.375327 106.400331 
L 332.335034 105.038778 
L 332.29534 106.311178 
L 332.256244 106.810413 
L 332.217745 104.060344 
L 332.142534 104.966453 
L 332.105819 107.948856 
L 332.034167 105.46046 
L 331.931109 100.588182 
L 331.8333 105.773221 
L 331.801854 103.286937 
L 331.770982 103.066681 
L 331.681791 105.898904 
L 331.653194 103.71916 
L 331.625159 101.248549 
L 331.597683 104.708689 
L 331.468605 110.918284 
L 331.420806 108.219738 
L 331.397719 110.718317 
L 331.310742 117.828875 
L 331.290335 117.152258 
L 331.196215 109.390647 
L 331.162215 112.152214 
L 331.145986 113.966656 
L 331.086145 108.855827 
L 331.034258 99.963671 
L 330.990025 109.993067 
L 330.980129 109.965734 
L 330.97069 111.72524 
L 330.937417 103.712368 
L 330.887403 109.573649 
L 330.972324 96.885322 
L 330.877899 114.378529 
L 330.978964 97.763452 
L 331.096063 106.62299 
L 330.9926 97.03519 
L 331.103662 104.070925 
L 331.126351 100.516424 
L 331.198417 109.218797 
L 331.230706 104.654306 
L 331.269599 112.49848 
L 331.304311 115.773782 
L 331.12074 99.230552 
L 331.003078 111.551289 
L 330.968823 109.143555 
L 330.913708 110.970024 
L 330.874441 105.805204 
L 330.767273 110.458815 
L 330.744277 109.663194 
L 330.672119 108.972589 
L 330.621352 111.506026 
L 330.366072 100.335683 
L 330.334947 101.358113 
L 330.30326 99.629973 
L 330.271006 98.896126 
L 330.238183 99.286775 
L 330.170821 103.923607 
L 330.101154 103.084541 
L 330.065452 103.37336 
L 330.029168 102.0661 
L 329.992301 102.932238 
L 329.954848 106.215155 
L 329.91681 103.907555 
L 329.676171 97.182064 
L 329.547789 100.803657 
L 329.503788 100.674216 
L 329.321731 104.310374 
L 329.2747 104.499862 
L 329.227062 102.810731 
L 329.129964 102.948061 
L 329.080505 102.78789 
L 328.979763 101.506774 
L 328.824094 104.586278 
L 328.770991 105.264379 
L 328.717283 104.755575 
L 328.662971 104.552202 
L 328.496414 97.79687 
L 328.439688 96.639948 
L 328.382359 98.376963 
L 328.324425 96.689075 
L 328.265888 98.12352 
L 328.086659 104.675723 
L 327.964173 102.453927 
L 327.902035 104.06537 
L 327.775977 100.512428 
L 327.71206 103.733607 
L 327.647555 100.334981 
L 327.582462 100.388659 
L 327.383675 101.331091 
L 327.31625 101.204591 
L 327.248246 103.804721 
L 327.179668 102.70629 
L 327.040792 98.323834 
L 326.9705 100.287118 
L 326.756226 93.312817 
L 326.683672 95.094073 
L 326.536877 93.375429 
L 326.462639 97.369234 
L 326.387843 97.176215 
L 326.312492 97.015858 
L 326.236588 97.169806 
L 326.160133 98.778296 
L 326.08313 98.474584 
L 326.005583 98.71833 
L 325.769704 97.058929 
L 325.690008 102.012811 
L 325.609783 101.596203 
L 325.529033 101.458942 
L 325.447763 102.299444 
L 325.200867 98.422909 
L 325.117554 101.092487 
L 324.693554 95.035565 
L 324.520551 97.004403 
L 324.433335 97.267604 
L 324.345647 98.281068 
L 324.168871 92.882437 
L 323.990251 96.485774 
L 323.900259 93.695213 
L 323.718931 97.501811 
L 323.627602 96.414606 
L 323.535838 97.728443 
L 323.44364 95.750591 
L 323.257967 99.642181 
L 323.164502 102.286478 
L 323.070625 100.906738 
L 322.976343 101.568211 
L 322.691133 111.647136 
L 322.595299 113.36491 
L 322.499097 113.027903 
L 322.305622 109.55528 
L 322.208363 109.36239 
L 322.012842 105.589696 
L 321.914594 107.133876 
L 321.717163 110.919486 
L 321.617997 111.071153 
L 321.418802 108.269689 
L 321.218511 100.901718 
L 321.017178 103.684506 
L 320.916139 99.835492 
L 320.81486 100.386573 
L 320.713347 98.986849 
L 320.611609 101.659943 
L 320.50965 100.483968 
L 320.305103 102.321626 
L 320.202527 101.68273 
L 319.996807 100.300892 
L 319.893675 101.51965 
L 319.686908 104.792638 
L 319.583288 102.562894 
L 319.375614 105.254364 
L 319.167413 104.097159 
L 318.958747 106.372804 
L 318.85426 105.593026 
L 318.749682 106.643074 
L 318.64502 106.566568 
L 318.540284 106.213054 
L 318.330617 101.149944 
L 318.120743 105.29247 
L 318.015749 105.377082 
L 317.910727 107.351449 
L 317.700634 104.548304 
L 317.49053 107.29589 
L 317.385496 106.125945 
L 317.280484 109.09815 
L 317.070564 105.504244 
L 316.965672 106.470053 
L 316.860836 104.234029 
L 316.756065 106.553567 
L 316.651367 105.458001 
L 316.546751 102.41636 
L 316.33779 103.774943 
L 316.129247 106.544387 
L 316.025153 104.973336 
L 315.921187 101.205578 
L 315.610132 105.653624 
L 315.403543 105.131664 
L 315.197654 113.036709 
L 315.094994 111.282302 
L 314.890288 109.588618 
L 314.788259 111.032913 
L 314.58489 106.186 
L 314.483568 112.349468 
L 314.080888 105.047984 
L 313.980911 109.142506 
L 313.881226 107.596702 
L 313.781842 110.977237 
L 313.682767 109.662359 
L 313.485581 114.971818 
L 313.387486 117.46994 
L 313.19234 112.760519 
L 312.998639 109.895487 
L 312.90235 110.732093 
L 312.710934 106.422422 
L 312.615822 105.58548 
L 312.521115 106.611854 
L 312.426822 105.543256 
L 312.332949 106.865196 
L 312.239503 105.503955 
L 312.146491 105.54947 
L 312.053919 104.724637 
L 311.961794 104.918301 
L 311.778908 101.869694 
L 311.688157 98.205031 
L 311.597875 101.739127 
L 311.418735 99.183048 
L 311.329887 100.406772 
L 310.807121 83.405492 
L 310.468511 88.492488 
L 310.385101 93.116151 
L 310.302191 92.356131 
L 310.219784 91.486957 
L 309.975598 100.403211 
L 309.895226 100.181625 
L 309.815372 100.60118 
L 309.657227 94.974169 
L 309.501185 97.131172 
L 309.120436 104.18566 
L 308.971954 101.660593 
L 308.898544 102.490169 
L 308.681679 98.323031 
L 308.61052 100.814167 
L 308.53993 99.886943 
L 308.46991 100.268055 
L 308.400465 102.14396 
L 308.331595 100.348942 
L 308.12845 91.792903 
L 308.06189 91.245915 
L 307.801429 99.161189 
L 307.550241 92.157337 
L 307.428119 93.528663 
L 307.367924 92.664552 
L 307.308304 88.649183 
L 307.249257 91.204147 
L 307.190783 92.322542 
L 307.132879 90.877804 
L 307.075545 92.865744 
L 307.018779 89.72347 
L 306.962579 92.16069 
L 306.797362 95.150103 
L 306.743414 96.382005 
L 306.690027 95.172807 
L 306.637199 96.215044 
L 306.584929 96.002996 
L 306.482058 92.48887 
L 306.331892 97.793839 
L 306.282936 96.3396 
L 306.234526 97.773592 
L 306.186662 96.308434 
L 306.092562 93.59062 
L 305.910827 101.220143 
L 305.866733 101.035997 
L 305.780145 98.73994 
L 305.654243 107.01295 
L 305.572955 105.202065 
L 305.454978 100.774644 
L 305.378947 100.971672 
L 305.341712 100.477636 
L 305.304995 101.658716 
L 305.268794 106.563347 
L 305.197937 104.450536 
L 305.163278 104.472236 
L 305.029725 101.796125 
L 304.87406 107.197056 
L 304.786578 106.499641 
L 304.70346 99.185203 
L 304.650431 102.745533 
L 304.624621 105.327269 
L 304.54998 103.487751 
L 304.391599 92.592958 
L 304.235758 101.082639 
L 304.167053 102.666428 
L 304.089148 93.70777 
L 304.060316 97.620202 
L 304.019403 93.085873 
L 304.00636 95.091592 
L 303.945253 86.731878 
L 303.89017 90.432371 
L 303.869579 95.136825 
L 303.811908 87.737092 
L 303.793812 84.239091 
L 303.716545 90.925716 
L 303.699845 88.529418 
L 303.649556 93.471901 
L 303.579764 104.256626 
L 303.533282 97.776067 
L 303.430174 92.035599 
L 303.513861 100.042693 
L 303.40747 92.764243 
L 303.2804 100.10048 
L 303.266295 98.61511 
L 303.207035 100.997631 
L 303.175631 105.462819 
L 303.126205 100.582763 
L 303.091649 96.369946 
L 303.055758 102.185299 
L 303.018491 97.375839 
L 302.95992 99.357455 
L 302.832603 87.882074 
L 302.715268 92.354636 
L 302.665276 91.818387 
L 302.639601 92.063536 
L 302.613465 90.837682 
L 302.586863 93.914929 
L 302.559789 93.284414 
L 302.475686 95.767043 
L 302.387155 89.944613 
L 302.356635 92.753012 
L 302.26197 88.351209 
L 302.128303 93.417184 
L 301.985852 99.284123 
L 301.911258 96.274693 
L 301.873109 96.560547 
L 301.834388 100.053202 
L 301.755222 97.558462 
L 301.632123 95.251329 
L 301.58992 96.061711 
L 301.503743 98.154369 
L 301.415194 95.809792 
L 301.277888 99.192369 
L 301.135161 93.345679 
L 301.086371 93.527775 
L 301.03697 93.148743 
L 300.986954 87.447574 
L 300.93632 88.59428 
L 300.619384 95.194204 
L 300.564355 94.812989 
L 300.39547 99.454665 
L 300.220885 96.56872 
L 299.917235 93.262027 
L 299.854602 93.669508 
L 299.791333 94.671349 
L 299.531899 90.59842 
L 299.465448 89.761301 
L 299.330632 94.445905 
L 299.262268 91.66157 
L 299.193266 92.106494 
L 299.123627 91.777922 
L 299.05335 92.696183 
L 298.982435 92.413506 
L 298.910883 89.531602 
L 298.838692 90.96982 
L 298.543576 100.695203 
L 298.46822 99.206729 
L 298.39224 99.251115 
L 298.315638 103.123239 
L 297.923421 92.45819 
L 297.843155 94.15746 
L 297.762286 94.392235 
L 297.680817 92.152277 
L 297.598748 92.817979 
L 297.516083 92.85947 
L 297.179519 102.652446 
L 297.093922 97.144223 
L 297.007752 97.39398 
L 296.921011 98.541934 
L 296.745836 97.189994 
L 296.65741 96.837734 
L 296.568429 94.909439 
L 296.478899 95.095019 
L 296.388821 95.0411 
L 296.2982 97.046192 
L 296.20704 96.996662 
L 296.023123 98.632674 
L 295.930374 94.570667 
L 295.837104 94.915862 
L 295.649015 91.284104 
L 295.554203 91.427644 
L 295.363062 94.50604 
L 295.266742 93.935479 
L 295.169929 96.070314 
L 295.072627 94.188523 
L 294.97484 89.374645 
L 294.777825 94.128619 
L 294.678608 93.091209 
L 294.578922 94.477549 
L 294.478774 91.849457 
L 294.378168 93.537815 
L 294.175605 99.092734 
L 294.07366 99.910991 
L 293.868474 96.095989 
L 293.765245 97.209701 
L 293.453089 94.696409 
L 293.242989 97.596276 
L 293.031348 93.055152 
L 292.924964 91.554285 
L 292.603621 95.149719 
L 292.495795 91.803602 
L 292.387623 93.195135 
L 292.279111 92.31993 
L 292.170264 93.075043 
L 291.951586 89.27262 
L 291.731631 91.933598 
L 291.621189 91.404744 
L 291.510444 90.114594 
L 291.28807 91.751948 
L 291.176453 94.237103 
L 291.064557 93.546579 
L 290.952389 93.74497 
L 290.839955 91.797486 
L 290.727262 92.643655 
L 290.501123 96.214904 
L 290.274028 94.020353 
L 290.16014 94.243756 
L 290.046032 91.715414 
L 289.931713 92.839185 
L 289.817189 95.722597 
L 289.702467 95.307881 
L 289.587555 95.991159 
L 289.472459 90.458654 
L 289.241744 93.577883 
L 289.126139 96.281015 
L 289.010378 92.039501 
L 288.894467 95.671822 
L 288.66223 94.438786 
L 288.545918 94.174549 
L 288.312941 98.648293 
L 288.196293 98.554245 
L 288.079551 95.84224 
L 287.962721 96.234925 
L 287.728832 93.293613 
L 287.611786 93.392692 
L 287.377531 97.943947 
L 287.260337 97.583941 
L 287.14311 94.514076 
L 287.025858 96.258769 
L 286.908589 96.082456 
L 286.791309 96.263976 
L 286.674028 98.585314 
L 286.439494 94.570984 
L 286.322255 94.875898 
L 286.205046 94.433231 
L 286.087874 97.26082 
L 285.853672 95.500233 
L 285.619714 99.770906 
L 285.386068 96.311664 
L 285.269383 97.421479 
L 285.036327 95.482487 
L 284.919971 94.590266 
L 284.803739 94.787428 
L 284.57168 95.985955 
L 284.455867 92.310656 
L 284.340207 92.730793 
L 284.224708 91.103965 
L 283.994216 93.510002 
L 283.764446 94.468329 
L 283.535454 92.586582 
L 282.853711 99.987356 
L 282.516169 95.525507 
L 282.404199 94.122395 
L 282.292513 97.033689 
L 282.181117 96.720248 
L 282.07002 98.751504 
L 281.84875 96.018429 
L 281.738591 99.972774 
L 281.62876 98.577601 
L 281.519264 93.986685 
L 281.410108 95.413512 
L 281.192841 89.671312 
L 281.08474 89.633569 
L 280.869624 87.241633 
L 280.655982 85.674919 
L 280.338348 93.807205 
L 280.128534 93.179536 
L 280.024225 91.995001 
L 279.920323 93.922335 
L 279.611107 91.360764 
L 279.508881 93.35552 
L 279.204807 88.004262 
L 279.10433 86.791932 
L 278.904716 89.738947 
L 278.805587 88.573682 
L 278.706912 85.841487 
L 278.608696 86.489667 
L 278.413643 84.918946 
L 278.316811 83.510373 
L 278.220443 85.824556 
L 278.124541 85.484446 
L 278.029107 83.388056 
L 277.745628 91.863672 
L 277.652085 85.378263 
L 277.559021 85.924407 
L 277.466437 87.144536 
L 277.374336 90.250709 
L 277.282721 89.718087 
L 277.191594 92.075525 
L 276.92117 87.975287 
L 276.655232 94.06546 
L 276.480467 88.374669 
L 276.39385 88.080673 
L 276.307743 88.143937 
L 276.22215 93.183343 
L 276.137074 90.42838 
L 275.801973 97.84918 
L 275.719515 94.383965 
L 275.637589 95.124276 
L 275.236025 87.130358 
L 275.157333 87.662714 
L 275.001574 90.726882 
L 274.847985 86.924592 
L 274.772004 87.475417 
L 274.547317 92.67056 
L 274.327518 86.486107 
L 274.255335 87.870293 
L 274.042014 79.915171 
L 273.697051 85.549376 
L 273.5627 85.222943 
L 273.496293 86.472976 
L 273.430396 85.514752 
L 273.300122 86.924529 
L 273.235741 86.802598 
L 273.171862 87.356383 
L 273.045599 86.623259 
L 272.92132 90.576271 
L 272.619216 85.147801 
L 272.560251 85.854593 
L 272.501764 86.473325 
L 272.443751 80.582093 
L 272.386208 80.979525 
L 272.272508 80.032146 
L 272.160619 82.784481 
L 272.050501 82.49478 
L 271.942115 82.661135 
L 271.835418 80.221607 
L 271.782688 81.276303 
L 271.678441 84.51951 
L 271.626914 84.460421 
L 271.375031 77.185541 
L 271.325759 77.632522 
L 271.228265 83.668394 
L 271.180031 80.681604 
L 271.084557 84.530337 
L 270.943761 89.84721 
L 270.851459 86.745155 
L 270.760368 90.148628 
L 270.715267 89.250915 
L 270.670457 88.146686 
L 270.625935 93.048665 
L 270.581696 91.824577 
L 270.537737 89.07259 
L 270.494054 89.319741 
L 270.4075 91.646873 
L 270.364621 89.518098 
L 270.322002 92.119848 
L 270.279641 95.152097 
L 270.237534 90.896401 
L 270.195677 91.282858 
L 270.071557 83.825745 
L 270.030648 83.913504 
L 269.949489 85.590277 
L 269.909227 84.681283 
L 269.829308 86.954455 
L 269.789639 86.027926 
L 269.710851 80.191038 
L 269.671717 80.308266 
L 269.555265 83.536787 
L 269.440081 78.000645 
L 269.401929 79.866968 
L 269.363885 79.237109 
L 269.212624 86.862658 
L 269.175006 84.038486 
L 269.137453 83.908103 
L 269.09996 84.710987 
L 269.062519 82.34391 
L 268.987764 83.845087 
L 268.950437 83.772367 
L 268.913133 80.663509 
L 268.875845 82.363333 
L 268.801288 87.721547 
L 268.764007 86.219495 
L 268.726715 83.128961 
L 268.652074 84.411872 
L 268.502359 81.474669 
L 268.464797 81.714842 
L 268.122933 98.052062 
L 267.929281 91.058916 
L 267.772023 93.573258 
L 267.652541 87.5774 
L 267.450109 93.020097 
L 267.409092 93.334291 
L 267.326499 88.148709 
L 267.284913 89.058605 
L 267.201142 93.722029 
L 267.116549 92.366867 
L 267.073936 91.640203 
L 267.031107 92.440746 
L 266.769286 75.496024 
L 266.543901 79.320158 
L 266.497939 77.097134 
L 266.451664 78.711854 
L 266.405067 78.533737 
L 266.263276 82.591798 
L 266.069306 75.025473 
L 266.019884 75.673922 
L 265.919863 76.447026 
L 265.869247 75.165899 
L 265.818215 76.360382 
L 265.714876 74.380097 
L 265.662549 72.461402 
L 265.609772 74.664108 
L 265.556535 74.634191 
L 265.50283 74.012044 
L 265.338822 81.156748 
L 265.283167 84.369963 
L 265.170348 79.353642 
L 265.113172 82.162139 
L 265.055478 81.23779 
L 264.99726 81.776567 
L 264.938514 79.612166 
L 264.879234 81.279792 
L 264.819417 83.674631 
L 264.448901 73.386332 
L 264.385147 72.13191 
L 264.190303 78.217939 
L 263.989969 81.707466 
L 263.921951 81.754217 
L 263.853307 83.416231 
L 263.784033 82.543655 
L 263.643586 83.863956 
L 263.500588 81.315253 
L 263.428127 85.223573 
L 263.355021 84.41806 
L 263.281269 84.300806 
L 263.20687 86.887958 
L 263.131822 86.432964 
L 263.056126 87.127066 
L 262.97978 86.355953 
L 262.902785 91.374388 
L 262.825142 90.578014 
L 262.588322 84.922178 
L 262.508084 85.463504 
L 262.263455 78.06515 
L 262.180598 81.028732 
L 262.09708 80.582819 
L 262.0129 79.465398 
L 261.842543 82.825129 
L 261.756365 87.667273 
L 261.669522 86.785706 
L 261.405005 82.653194 
L 261.225338 85.575367 
L 261.134509 83.484465 
L 261.043017 85.041731 
L 260.858051 83.839607 
L 260.764577 84.364677 
L 260.670443 81.839943 
L 260.575649 82.257018 
L 260.480197 84.039154 
L 260.287318 82.483538 
L 260.189894 85.405792 
L 259.993083 80.804972 
L 259.893697 82.602962 
L 259.793659 82.579418 
L 259.692969 82.969819 
L 259.387015 88.62046 
L 259.283745 87.031792 
L 259.179838 89.019894 
L 258.970129 86.452029 
L 258.864333 85.764913 
L 258.650873 86.727988 
L 258.434947 85.716006 
L 258.326069 85.827351 
L 258.106497 83.691836 
L 257.884523 80.563737 
L 257.660164 80.205546 
L 257.547095 83.174241 
L 257.433437 82.319554 
L 257.319193 79.911207 
L 257.204364 80.08467 
L 257.088953 77.661566 
L 256.856382 71.308811 
L 256.739219 71.439837 
L 256.621468 71.011292 
L 256.384201 75.965551 
L 256.144587 78.408398 
L 256.023906 78.557991 
L 255.902644 78.124717 
L 255.535406 81.914973 
L 255.287743 83.270745 
L 255.163076 86.833771 
L 255.03786 85.913575 
L 254.9121 82.836465 
L 254.7858 82.601809 
L 254.531603 81.520717 
L 254.403716 81.400549 
L 254.275309 84.668734 
L 254.14639 84.097193 
L 254.016963 84.518872 
L 253.887035 85.855814 
L 253.756613 84.976375 
L 253.625701 81.359564 
L 253.362434 86.349307 
L 253.230091 85.5977 
L 253.097286 85.805079 
L 252.830312 83.412419 
L 252.696156 80.040819 
L 252.56156 80.971335 
L 252.426531 78.911178 
L 252.018888 80.892186 
L 251.882173 79.637689 
L 251.607523 81.080207 
L 251.4696 81.018115 
L 251.19259 79.321526 
L 250.914057 74.857123 
L 250.774229 73.165548 
L 250.634031 74.263471 
L 250.493463 72.685458 
L 250.211238 80.730344 
L 249.927595 78.574813 
L 249.642584 83.96146 
L 249.499583 85.624676 
L 249.068694 79.099087 
L 248.924457 78.97846 
L 248.779926 80.370314 
L 248.635109 80.504994 
L 248.344636 77.505335 
L 248.198992 79.079724 
L 248.053085 79.222404 
L 247.90692 75.943914 
L 247.760502 77.521413 
L 247.613835 73.356117 
L 247.466923 74.906058 
L 247.319771 78.007966 
L 247.172383 75.415225 
L 247.024765 77.027144 
L 246.87692 74.809736 
L 246.728855 77.321797 
L 246.580573 77.744971 
L 246.134504 84.765458 
L 245.985434 83.318791 
L 245.836188 83.470724 
L 245.686776 84.242933 
L 245.537204 84.254902 
L 245.387484 85.059108 
L 245.237623 86.709435 
L 244.937517 82.499952 
L 244.787289 82.48276 
L 244.48652 78.779836 
L 244.335994 79.022481 
L 244.034692 79.631787 
L 243.883932 79.643356 
L 243.431303 84.438834 
L 243.280341 83.547649 
L 242.978336 80.703871 
L 242.676274 76.292012 
L 242.525238 76.339442 
L 242.374204 75.133763 
L 242.223179 75.788173 
L 242.072169 79.369829 
L 241.92118 78.645649 
L 241.46842 85.011285 
L 241.317599 81.751509 
L 241.016156 82.983768 
L 240.86555 79.905259 
L 240.715032 80.250439 
L 240.564608 81.184789 
L 240.414285 77.600957 
L 239.96399 79.682986 
L 239.814139 80.20429 
L 239.664425 79.967421 
L 239.365437 84.939866 
L 239.216179 84.172635 
L 239.067091 84.481982 
L 238.918182 83.808666 
L 238.769459 79.955118 
L 238.620929 81.359877 
L 238.4726 78.883122 
L 238.32448 83.544711 
L 238.176577 82.244993 
L 238.028897 79.341348 
L 237.881448 82.634065 
L 237.734237 78.602556 
L 237.58727 78.47248 
L 237.440551 75.995975 
L 237.294087 76.045767 
L 237.147881 75.217535 
L 237.001939 76.624646 
L 236.856266 75.981605 
L 236.710868 80.956293 
L 236.565751 81.838737 
L 236.276392 80.63695 
L 235.988241 77.733963 
L 235.844634 78.29088 
L 235.558385 80.367635 
L 235.415756 80.657255 
L 235.273467 80.437678 
L 235.131524 79.813338 
L 234.989932 76.628107 
L 234.707824 78.859549 
L 234.287421 72.207971 
L 234.148036 77.730875 
L 234.009033 76.633808 
L 233.732186 77.49512 
L 233.594352 76.056748 
L 233.456915 77.57552 
L 233.319881 77.271791 
L 233.04703 73.346694 
L 232.775813 68.910867 
L 232.640819 69.158322 
L 232.506234 73.477868 
L 232.2383 71.203903 
L 232.104953 70.992291 
L 231.972018 70.281536 
L 231.707391 71.611978 
L 231.5757 72.294914 
L 231.444423 71.554533 
L 231.313562 71.756428 
L 231.05309 73.640476 
L 230.923481 71.214231 
L 230.665521 74.896233 
L 230.409246 70.373287 
L 230.28174 71.80098 
L 230.027989 66.594279 
L 229.775899 64.194323 
L 229.650466 64.398094 
L 229.525434 62.909887 
L 228.906139 70.809127 
L 228.783437 73.825134 
L 228.66112 73.494512 
L 228.539189 77.26514 
L 228.296491 75.68709 
L 228.175728 76.394266 
L 228.055358 76.227758 
L 227.696612 74.162188 
L 227.459427 77.589868 
L 227.223835 74.644895 
L 226.98984 71.804052 
L 226.75743 67.079913 
L 226.526582 68.940905 
L 226.297272 70.489747 
L 226.183187 69.587114 
L 226.06948 70.571243 
L 225.956147 69.90992 
L 225.730592 66.805303 
L 225.61836 67.023891 
L 225.172972 70.265814 
L 224.952357 73.538414 
L 224.842564 74.984574 
L 224.29863 64.068265 
L 224.190813 67.652975 
L 224.083306 66.715163 
L 223.976103 68.707535 
L 223.869201 67.860495 
L 223.762596 68.495493 
L 223.656282 66.751326 
L 223.444508 68.77642 
L 223.339037 68.643875 
L 223.233838 65.708784 
L 223.128902 66.11942 
L 223.024225 67.59732 
L 222.919801 67.200669 
L 222.815624 69.682711 
L 222.607997 67.177442 
L 222.401301 68.756789 
L 222.195488 64.492046 
L 221.990507 68.727646 
L 221.888315 68.918942 
L 221.380178 73.026198 
L 221.279091 72.721273 
L 221.178177 70.053788 
L 221.07743 70.290853 
L 220.976846 70.083478 
L 220.776151 71.973747 
L 220.576057 69.072135 
L 220.476225 70.425795 
L 220.37653 68.329821 
L 220.276965 68.604845 
L 220.177527 67.215124 
L 219.979007 70.440709 
L 219.879917 70.708358 
L 219.682061 75.642449 
L 219.583291 74.457981 
L 219.484623 73.265597 
L 219.386054 74.135751 
L 219.287584 77.707963 
L 219.18921 74.540154 
L 219.09093 74.667846 
L 218.992743 75.28047 
L 218.894645 73.074144 
L 218.698707 74.121644 
L 218.600861 73.402368 
L 218.503095 75.230519 
L 218.112773 69.535218 
L 217.820701 74.341114 
L 217.723454 75.659963 
L 217.529118 81.801536 
L 217.432029 79.378151 
L 217.334995 81.578882 
L 217.238014 80.940727 
L 217.141087 81.383904 
L 217.044215 82.779295 
L 216.657266 70.668775 
L 216.560648 69.190961 
L 216.464068 70.248347 
L 216.367521 69.952129 
L 216.271001 67.593776 
L 216.078016 69.372209 
L 215.885067 67.371609 
L 215.788592 70.652605 
L 215.69211 68.60693 
L 215.499106 71.998364 
L 215.209426 66.174681 
L 215.112793 63.991127 
L 214.725688 67.843749 
L 214.628734 68.357157 
L 214.337338 64.525029 
L 214.142541 59.324186 
L 214.04495 59.623135 
L 213.751281 65.341393 
L 213.653065 62.748866 
L 213.456092 66.158201 
L 213.357322 66.25547 
L 213.258353 66.92754 
L 213.159181 68.504928 
L 212.960198 65.251451 
L 212.860375 69.222524 
L 212.760322 68.794476 
L 212.660036 68.526183 
L 212.458743 69.461404 
L 212.053153 71.981934 
L 211.848798 69.799652 
L 211.746216 70.055041 
L 211.643356 65.881383 
L 211.540214 65.946847 
L 211.333049 63.801408 
L 211.229013 65.90524 
L 211.124665 63.595461 
L 211.019996 63.754113 
L 210.915 64.832772 
L 210.703993 63.973753 
L 210.491581 60.89787 
L 210.384823 59.501381 
L 210.170158 64.85282 
L 209.953919 66.306702 
L 209.845194 66.559233 
L 209.736059 67.190186 
L 209.626509 69.256051 
L 209.295319 63.390185 
L 209.184055 63.531429 
L 208.960185 67.884052 
L 208.847569 66.975689 
L 208.506945 65.878819 
L 208.392461 67.436183 
L 208.277499 64.772876 
L 208.162051 65.280585 
L 207.929681 62.97357 
L 207.812744 63.026727 
L 207.458839 57.795074 
L 207.22023 63.248461 
L 207.1001 61.864547 
L 206.858162 66.078817 
L 206.736345 66.54181 
L 206.613956 63.946608 
L 206.49099 65.364083 
L 206.243313 63.919583 
L 206.118592 63.899759 
L 205.993274 63.40641 
L 205.740827 60.478004 
L 205.613686 61.373648 
L 205.485924 61.080381 
L 205.357536 63.969579 
L 205.098864 59.174539 
L 204.968568 60.955044 
L 204.706018 56.592156 
L 204.573745 56.904016 
L 204.440795 55.538741 
L 204.172826 58.372884 
L 204.03779 59.881772 
L 203.902044 58.787298 
L 203.765583 61.539363 
L 203.628401 59.136199 
L 203.490492 58.777208 
L 203.351847 55.403546 
L 203.072327 63.01872 
L 202.931444 63.748118 
L 202.789808 62.515601 
L 202.647415 58.962886 
L 202.504258 61.696273 
L 202.215638 59.27363 
L 202.070164 59.822927 
L 201.923909 63.390571 
L 201.629048 63.667421 
L 201.480438 65.3967 
L 201.331041 64.007309 
L 201.180856 64.128552 
L 201.029881 62.317743 
L 200.878115 65.406993 
L 200.725559 65.218368 
L 200.418076 68.879957 
L 199.950948 64.495231 
L 199.793669 64.651162 
L 199.635605 62.800801 
L 199.476755 64.592748 
L 198.995488 61.639564 
L 198.17761 65.114505 
L 198.011674 63.582553 
L 197.844953 65.569237 
L 197.677451 64.766534 
L 197.509166 60.605328 
L 197.340098 63.630769 
L 197.17025 62.863125 
L 196.999623 66.130116 
L 196.82822 65.276515 
L 196.656043 65.444981 
L 196.483096 64.572344 
L 195.783614 57.46179 
L 195.429239 61.274353 
L 195.250888 57.970559 
L 194.891856 60.969784 
L 194.711174 61.753949 
L 194.529718 63.680541 
L 194.164486 60.298655 
L 193.980714 60.135155 
L 193.796172 62.226669 
L 193.610865 62.167887 
L 193.424793 61.178288 
L 193.050371 65.764594 
L 192.67295 68.785463 
L 192.483131 66.133538 
L 192.101308 65.309436 
L 191.909316 69.151245 
L 191.716612 70.113708 
L 191.523203 66.421345 
L 191.329098 68.643599 
L 190.938821 64.330551 
L 190.74266 64.369609 
L 189.951315 60.788791 
L 189.751824 61.296332 
L 189.55168 62.957457 
L 189.350888 66.03308 
L 189.149456 62.122871 
L 188.744693 67.431804 
L 188.337447 61.885364 
L 188.132907 63.040964 
L 187.927762 61.685051 
L 187.51568 64.616842 
L 187.308757 63.347727 
L 187.101255 66.247852 
L 186.893181 62.902791 
L 186.684542 64.882854 
L 186.475345 65.203428 
L 186.265596 64.845026 
L 186.055306 67.683228 
L 185.633131 61.992523 
L 185.421259 61.324682 
L 185.20887 58.989337 
L 184.995968 58.023629 
L 184.782557 60.720211 
L 184.139309 55.409246 
L 183.923894 55.358393 
L 183.491566 50.440165 
L 183.274647 51.004414 
L 183.057224 54.59749 
L 182.839295 55.248933 
L 182.620862 51.929728 
L 182.401925 52.108523 
L 181.962531 53.177499 
L 181.742072 49.850915 
L 181.521098 44.560068 
L 181.299598 43.43012 
L 181.077561 45.520445 
L 180.854978 43.593888 
L 180.63184 44.624968 
L 180.408138 44.663272 
L 180.183862 42.732741 
L 179.958998 38.376974 
L 179.507435 40.352529 
L 179.280706 40.164394 
L 179.053327 43.732066 
L 178.825289 43.738527 
L 178.596586 46.97048 
L 178.367213 48.144729 
L 178.137165 47.925439 
L 177.906436 45.994156 
L 177.675017 42.397254 
L 177.442897 41.903038 
L 177.210065 42.806147 
L 176.97651 42.298355 
L 176.742219 40.706636 
L 176.507179 40.54823 
L 176.271378 42.201212 
L 176.034803 42.193094 
L 175.797445 42.327771 
L 175.559297 44.788612 
L 175.320351 45.238824 
L 175.080601 47.493661 
L 174.840045 51.350082 
L 174.598685 49.61507 
L 174.35652 51.65632 
L 174.113553 50.982961 
L 173.869783 49.690432 
L 173.625212 51.732345 
L 173.379841 49.490689 
L 172.886705 54.904106 
L 172.390409 54.156269 
L 172.141086 54.130562 
L 171.890986 54.858595 
L 171.388473 48.422769 
L 171.136061 48.223921 
L 170.882876 47.434172 
L 170.628918 47.75594 
L 170.11868 49.001811 
L 169.60535 49.140675 
L 169.347528 49.76088 
L 169.088935 49.435818 
L 168.829575 49.493934 
L 168.569448 50.024952 
L 168.308557 49.683538 
L 168.046905 50.628152 
L 167.784496 50.775712 
L 167.521333 52.12428 
L 167.257422 50.683972 
L 166.992767 53.388133 
L 166.727375 51.552956 
L 166.461253 53.933211 
L 166.194409 58.824455 
L 165.926856 60.426022 
L 165.658606 59.787562 
L 165.389672 60.52323 
L 165.120067 60.76506 
L 164.849804 60.590659 
L 164.307351 55.98435 
L 163.762397 58.597449 
L 163.48901 57.258155 
L 163.215032 59.8539 
L 162.940475 57.587177 
L 162.389665 55.276501 
L 162.113433 56.804351 
L 161.836662 54.097852 
L 161.559362 54.309425 
L 161.281541 52.338894 
L 161.003206 51.747 
L 160.724364 51.555967 
L 160.44502 51.691433 
L 160.165181 48.450122 
L 159.884852 49.996392 
L 159.604038 54.060519 
L 159.32275 53.406 
L 158.758784 50.655892 
L 158.47612 50.824046 
L 158.193013 54.375127 
L 157.625504 50.238425 
L 157.341114 48.705574 
L 157.056306 49.234378 
L 156.771086 49.288422 
L 156.199436 51.706038 
L 155.91302 51.448015 
L 155.626218 47.569433 
L 155.339035 50.200033 
L 155.051475 48.267064 
L 154.763543 48.978347 
L 154.475245 51.084279 
L 154.186589 51.568161 
L 153.897581 49.640781 
L 153.31854 52.57001 
L 153.028525 52.234765 
L 152.738192 53.692379 
L 152.447553 54.446087 
L 152.156618 52.453112 
L 151.573902 56.472549 
L 151.282147 57.700795 
L 150.990145 58.104935 
L 150.69791 57.388262 
L 150.405457 57.628563 
L 150.112798 55.214949 
L 149.819948 55.73619 
L 149.526916 55.116059 
L 149.233716 54.840099 
L 148.940359 55.778649 
L 148.35322 50.006153 
L 148.059455 50.801243 
L 147.765569 47.489673 
L 146.883231 47.651753 
L 146.29448 44.319118 
L 145.999952 44.347033 
L 145.705324 45.895802 
L 145.410599 44.964612 
L 145.115778 45.070542 
L 144.820866 47.596369 
L 144.525867 47.729476 
L 144.230783 45.827698 
L 143.935617 45.661441 
L 143.640372 47.403159 
L 143.345051 45.664946 
L 143.049657 45.779193 
L 142.754189 43.864545 
L 142.163044 46.687224 
L 141.571642 44.345526 
L 141.275848 42.623003 
L 140.97999 42.496929 
L 140.684066 41.45342 
L 140.388071 39.970215 
L 140.092001 39.167185 
L 139.795845 34.6793 
L 139.49959 34.869599 
L 139.203224 36.376187 
L 138.90674 40.455183 
L 138.610132 41.106548 
L 137.719551 43.971535 
L 137.422442 46.874737 
L 137.125214 46.613722 
L 136.530412 44.738582 
L 136.232835 39.364679 
L 135.935135 39.408023 
L 135.339353 42.354803 
L 135.041268 41.39995 
L 134.74305 40.947647 
L 134.444694 39.644722 
L 134.146201 44.386401 
L 133.847572 46.884243 
L 133.249919 41.490606 
L 132.651736 46.302623 
L 132.352454 47.272078 
L 132.053049 44.793787 
L 131.453879 43.273206 
L 131.154117 45.295989 
L 130.554237 40.402777 
L 130.254115 40.419228 
L 129.953872 44.140264 
L 129.65351 45.195819 
L 129.353031 43.171202 
L 128.751727 46.754191 
L 128.149993 47.035291 
L 127.547864 44.409866 
L 127.246656 43.218997 
L 126.945352 42.514408 
L 126.64395 39.458158 
L 126.342448 41.478348 
L 126.040842 41.404786 
L 125.73913 39.206397 
L 125.437309 38.982505 
L 125.13537 37.97405 
L 124.833309 38.516279 
L 124.531118 38.74821 
L 124.228796 43.623765 
L 123.926342 42.924023 
L 123.623758 42.701208 
L 123.321043 41.912075 
L 123.018195 37.60981 
L 122.715206 37.642316 
L 122.412073 41.855147 
L 122.108793 40.811288 
L 121.805365 42.464778 
L 121.501789 42.244721 
L 121.198064 41.416061 
L 120.894186 38.191749 
L 120.28594 35.468162 
L 119.981553 34.622311 
L 119.676973 33.365847 
L 119.372185 33.491793 
L 119.067171 28.822882 
L 118.761912 30.12298 
L 118.456386 28.19011 
L 118.150571 27.821175 
L 117.844442 27.674787 
L 117.537977 28.771729 
L 116.92393 22.413552 
L 116.616279 22.967735 
L 116.308162 23.122957 
L 115.999544 24.050817 
L 115.690391 23.149939 
L 115.070379 29.918117 
L 114.759479 30.026522 
L 114.447958 31.049148 
L 114.135799 29.975719 
L 113.82298 27.070676 
L 113.509481 31.588608 
L 113.195284 27.320563 
L 112.564702 27.84294 
L 112.248267 24.49538 
L 111.612985 29.32759 
L 111.294098 30.953193 
L 110.974361 31.989933 
L 110.653759 30.010438 
L 110.009896 30.618981 
L 109.686607 33.995979 
L 109.362396 31.939348 
L 109.037251 34.263842 
L 108.711164 33.451849 
L 108.384121 33.175151 
L 108.056114 34.924127 
L 107.397169 32.138247 
L 107.066211 36.855358 
L 106.734255 34.272194 
L 106.401288 29.902932 
L 106.067293 28.342724 
L 105.732252 28.603745 
L 105.396151 32.251089 
L 105.058981 32.217784 
L 104.720734 34.217396 
L 104.381399 32.278224 
L 104.040964 31.399174 
L 103.356728 27.154225 
L 103.012889 27.498712 
L 102.667875 26.490912 
L 102.32167 27.101753 
L 101.974256 30.253564 
L 101.275743 27.271894 
L 100.9246 20.844361 
L 100.572164 23.224768 
L 100.218409 23.058117 
L 99.506816 19.338314 
L 99.14891 21.453856 
L 98.789557 22.590831 
L 98.42873 24.240268 
L 98.066405 24.074764 
L 97.702557 23.555844 
L 97.337163 22.497232 
L 96.970195 22.301007 
L 96.231445 26.429711 
L 95.859625 26.381015 
L 95.486155 28.098623 
L 95.111016 24.302625 
L 94.734185 24.274254 
L 93.975354 22.842725 
L 93.593306 23.470774 
L 93.209473 22.584588 
L 92.436369 25.737811 
L 92.047066 27.173288 
L 91.655904 21.418572 
L 91.262858 22.067012 
L 90.867906 23.154949 
L 90.471021 21.5611 
L 90.07218 23.248118 
L 89.671364 23.156381 
L 89.268553 22.921912 
L 88.863725 23.008846 
L 88.45686 25.085649 
L 88.047945 25.209896 
L 87.636964 22.785504 
L 87.223898 22.708055 
L 86.808732 25.443973 
L 86.391456 27.105324 
L 85.126849 22.341059 
L 84.701004 24.727653 
L 84.272977 22.924112 
L 83.842755 23.690176 
L 83.410322 24.164718 
L 82.975663 24.291851 
L 82.538764 23.026951 
L 82.099609 23.698219 
L 81.658183 21.838997 
L 81.214471 22.611752 
L 80.76846 24.084154 
L 80.320135 23.6517 
L 79.86949 26.581743 
L 79.41652 27.440896 
L 78.96122 26.124855 
L 78.503582 25.749484 
L 78.043599 21.867662 
L 77.581256 21.858519 
L 77.11654 23.227443 
L 76.649435 20.36649 
L 76.179929 21.016234 
L 75.708006 21.33364 
L 75.233656 22.291231 
L 74.756864 20.546188 
L 74.277618 21.566438 
L 73.795909 26.678286 
L 73.795909 26.678286 
" clip-path="url(#p0c92042468)" style="fill: none; stroke: #1f77b4; stroke-width: 1.5; stroke-linecap: square"/>
   </g>
   <g id="line2d_21">
    <path d="M 381.511999 119.859019 
L 387.514091 121.871864 
L 73.795909 16.664162 
L 73.795909 16.664162 
" clip-path="url(#p0c92042468)" style="fill: none; stroke: #ff7f0e; stroke-width: 1.5; stroke-linecap: square"/>
   </g>
   <g id="patch_3">
    <path d="M 58.11 139.811562 
L 58.11 10.8 
" style="fill: none; stroke: #000000; stroke-width: 0.8; stroke-linejoin: miter; stroke-linecap: square"/>
   </g>
   <g id="patch_4">
    <path d="M 403.2 139.811562 
L 403.2 10.8 
" style="fill: none; stroke: #000000; stroke-width: 0.8; stroke-linejoin: miter; stroke-linecap: square"/>
   </g>
   <g id="patch_5">
    <path d="M 58.11 139.811563 
L 403.2 139.811563 
" style="fill: none; stroke: #000000; stroke-width: 0.8; stroke-linejoin: miter; stroke-linecap: square"/>
   </g>
   <g id="patch_6">
    <path d="M 58.11 10.8 
L 403.2 10.8 
" style="fill: none; stroke: #000000; stroke-width: 0.8; stroke-linejoin: miter; stroke-linecap: square"/>
   </g>
   <g id="legend_1">
    <g id="patch_7">
     <path d="M 314.87625 44.420625 
L 396.9 44.420625 
Q 398.7 44.420625 398.7 42.620625 
L 398.7 17.1 
Q 398.7 15.3 396.9 15.3 
L 314.87625 15.3 
Q 313.07625 15.3 313.07625 17.1 
L 313.07625 42.620625 
Q 313.07625 44.420625 314.87625 44.420625 
z
" style="fill: #ffffff; opacity: 0.8; stroke: #cccccc; stroke-linejoin: miter"/>
    </g>
    <g id="line2d_22">
     <path d="M 316.67625 22.588594 
L 325.67625 22.588594 
L 334.67625 22.588594 
" style="fill: none; stroke: #1f77b4; stroke-width: 1.5; stroke-linecap: square"/>
    </g>
    <g id="text_10">
     <!-- Stochastic -->
     <g transform="translate(341.87625 25.738594) scale(0.09 -0.09)">
      <defs>
       <path id="DejaVuSans-53" d="M 3425 4513 
L 3425 3897 
Q 3066 4069 2747 4153 
Q 2428 4238 2131 4238 
Q 1616 4238 1336 4038 
Q 1056 3838 1056 3469 
Q 1056 3159 1242 3001 
Q 1428 2844 1947 2747 
L 2328 2669 
Q 3034 2534 3370 2195 
Q 3706 1856 3706 1288 
Q 3706 609 3251 259 
Q 2797 -91 1919 -91 
Q 1588 -91 1214 -16 
Q 841 59 441 206 
L 441 856 
Q 825 641 1194 531 
Q 1563 422 1919 422 
Q 2459 422 2753 634 
Q 3047 847 3047 1241 
Q 3047 1584 2836 1778 
Q 2625 1972 2144 2069 
L 1759 2144 
Q 1053 2284 737 2584 
Q 422 2884 422 3419 
Q 422 4038 858 4394 
Q 1294 4750 2059 4750 
Q 2388 4750 2728 4690 
Q 3069 4631 3425 4513 
z
" transform="scale(0.015625)"/>
       <path id="DejaVuSans-6f" d="M 1959 3097 
Q 1497 3097 1228 2736 
Q 959 2375 959 1747 
Q 959 1119 1226 758 
Q 1494 397 1959 397 
Q 2419 397 2687 759 
Q 2956 1122 2956 1747 
Q 2956 2369 2687 2733 
Q 2419 3097 1959 3097 
z
M 1959 3584 
Q 2709 3584 3137 3096 
Q 3566 2609 3566 1747 
Q 3566 888 3137 398 
Q 2709 -91 1959 -91 
Q 1206 -91 779 398 
Q 353 888 353 1747 
Q 353 2609 779 3096 
Q 1206 3584 1959 3584 
z
" transform="scale(0.015625)"/>
       <path id="DejaVuSans-63" d="M 3122 3366 
L 3122 2828 
Q 2878 2963 2633 3030 
Q 2388 3097 2138 3097 
Q 1578 3097 1268 2742 
Q 959 2388 959 1747 
Q 959 1106 1268 751 
Q 1578 397 2138 397 
Q 2388 397 2633 464 
Q 2878 531 3122 666 
L 3122 134 
Q 2881 22 2623 -34 
Q 2366 -91 2075 -91 
Q 1284 -91 818 406 
Q 353 903 353 1747 
Q 353 2603 823 3093 
Q 1294 3584 2113 3584 
Q 2378 3584 2631 3529 
Q 2884 3475 3122 3366 
z
" transform="scale(0.015625)"/>
       <path id="DejaVuSans-68" d="M 3513 2113 
L 3513 0 
L 2938 0 
L 2938 2094 
Q 2938 2591 2744 2837 
Q 2550 3084 2163 3084 
Q 1697 3084 1428 2787 
Q 1159 2491 1159 1978 
L 1159 0 
L 581 0 
L 581 4863 
L 1159 4863 
L 1159 2956 
Q 1366 3272 1645 3428 
Q 1925 3584 2291 3584 
Q 2894 3584 3203 3211 
Q 3513 2838 3513 2113 
z
" transform="scale(0.015625)"/>
       <path id="DejaVuSans-61" d="M 2194 1759 
Q 1497 1759 1228 1600 
Q 959 1441 959 1056 
Q 959 750 1161 570 
Q 1363 391 1709 391 
Q 2188 391 2477 730 
Q 2766 1069 2766 1631 
L 2766 1759 
L 2194 1759 
z
M 3341 1997 
L 3341 0 
L 2766 0 
L 2766 531 
Q 2569 213 2275 61 
Q 1981 -91 1556 -91 
Q 1019 -91 701 211 
Q 384 513 384 1019 
Q 384 1609 779 1909 
Q 1175 2209 1959 2209 
L 2766 2209 
L 2766 2266 
Q 2766 2663 2505 2880 
Q 2244 3097 1772 3097 
Q 1472 3097 1187 3025 
Q 903 2953 641 2809 
L 641 3341 
Q 956 3463 1253 3523 
Q 1550 3584 1831 3584 
Q 2591 3584 2966 3190 
Q 3341 2797 3341 1997 
z
" transform="scale(0.015625)"/>
       <path id="DejaVuSans-73" d="M 2834 3397 
L 2834 2853 
Q 2591 2978 2328 3040 
Q 2066 3103 1784 3103 
Q 1356 3103 1142 2972 
Q 928 2841 928 2578 
Q 928 2378 1081 2264 
Q 1234 2150 1697 2047 
L 1894 2003 
Q 2506 1872 2764 1633 
Q 3022 1394 3022 966 
Q 3022 478 2636 193 
Q 2250 -91 1575 -91 
Q 1294 -91 989 -36 
Q 684 19 347 128 
L 347 722 
Q 666 556 975 473 
Q 1284 391 1588 391 
Q 1994 391 2212 530 
Q 2431 669 2431 922 
Q 2431 1156 2273 1281 
Q 2116 1406 1581 1522 
L 1381 1569 
Q 847 1681 609 1914 
Q 372 2147 372 2553 
Q 372 3047 722 3315 
Q 1072 3584 1716 3584 
Q 2034 3584 2315 3537 
Q 2597 3491 2834 3397 
z
" transform="scale(0.015625)"/>
      </defs>
      <use xlink:href="#DejaVuSans-53"/>
      <use xlink:href="#DejaVuSans-74" transform="translate(63.476562 0)"/>
      <use xlink:href="#DejaVuSans-6f" transform="translate(102.685547 0)"/>
      <use xlink:href="#DejaVuSans-63" transform="translate(163.867188 0)"/>
      <use xlink:href="#DejaVuSans-68" transform="translate(218.847656 0)"/>
      <use xlink:href="#DejaVuSans-61" transform="translate(282.226562 0)"/>
      <use xlink:href="#DejaVuSans-73" transform="translate(343.505859 0)"/>
      <use xlink:href="#DejaVuSans-74" transform="translate(395.605469 0)"/>
      <use xlink:href="#DejaVuSans-69" transform="translate(434.814453 0)"/>
      <use xlink:href="#DejaVuSans-63" transform="translate(462.597656 0)"/>
     </g>
    </g>
    <g id="line2d_23">
     <path d="M 316.67625 35.798906 
L 325.67625 35.798906 
L 334.67625 35.798906 
" style="fill: none; stroke: #ff7f0e; stroke-width: 1.5; stroke-linecap: square"/>
    </g>
    <g id="text_11">
     <!-- Exponential -->
     <g transform="translate(341.87625 38.948906) scale(0.09 -0.09)">
      <defs>
       <path id="DejaVuSans-45" d="M 628 4666 
L 3578 4666 
L 3578 4134 
L 1259 4134 
L 1259 2753 
L 3481 2753 
L 3481 2222 
L 1259 2222 
L 1259 531 
L 3634 531 
L 3634 0 
L 628 0 
L 628 4666 
z
" transform="scale(0.015625)"/>
       <path id="DejaVuSans-78" d="M 3513 3500 
L 2247 1797 
L 3578 0 
L 2900 0 
L 1881 1375 
L 863 0 
L 184 0 
L 1544 1831 
L 300 3500 
L 978 3500 
L 1906 2253 
L 2834 3500 
L 3513 3500 
z
" transform="scale(0.015625)"/>
       <path id="DejaVuSans-70" d="M 1159 525 
L 1159 -1331 
L 581 -1331 
L 581 3500 
L 1159 3500 
L 1159 2969 
Q 1341 3281 1617 3432 
Q 1894 3584 2278 3584 
Q 2916 3584 3314 3078 
Q 3713 2572 3713 1747 
Q 3713 922 3314 415 
Q 2916 -91 2278 -91 
Q 1894 -91 1617 61 
Q 1341 213 1159 525 
z
M 3116 1747 
Q 3116 2381 2855 2742 
Q 2594 3103 2138 3103 
Q 1681 3103 1420 2742 
Q 1159 2381 1159 1747 
Q 1159 1113 1420 752 
Q 1681 391 2138 391 
Q 2594 391 2855 752 
Q 3116 1113 3116 1747 
z
" transform="scale(0.015625)"/>
       <path id="DejaVuSans-6e" d="M 3513 2113 
L 3513 0 
L 2938 0 
L 2938 2094 
Q 2938 2591 2744 2837 
Q 2550 3084 2163 3084 
Q 1697 3084 1428 2787 
Q 1159 2491 1159 1978 
L 1159 0 
L 581 0 
L 581 3500 
L 1159 3500 
L 1159 2956 
Q 1366 3272 1645 3428 
Q 1925 3584 2291 3584 
Q 2894 3584 3203 3211 
Q 3513 2838 3513 2113 
z
" transform="scale(0.015625)"/>
      </defs>
      <use xlink:href="#DejaVuSans-45"/>
      <use xlink:href="#DejaVuSans-78" transform="translate(63.183594 0)"/>
      <use xlink:href="#DejaVuSans-70" transform="translate(122.363281 0)"/>
      <use xlink:href="#DejaVuSans-6f" transform="translate(185.839844 0)"/>
      <use xlink:href="#DejaVuSans-6e" transform="translate(247.021484 0)"/>
      <use xlink:href="#DejaVuSans-65" transform="translate(310.400391 0)"/>
      <use xlink:href="#DejaVuSans-6e" transform="translate(371.923828 0)"/>
      <use xlink:href="#DejaVuSans-74" transform="translate(435.302734 0)"/>
      <use xlink:href="#DejaVuSans-69" transform="translate(474.511719 0)"/>
      <use xlink:href="#DejaVuSans-61" transform="translate(502.294922 0)"/>
      <use xlink:href="#DejaVuSans-6c" transform="translate(563.574219 0)"/>
     </g>
    </g>
   </g>
  </g>
 </g>
 <defs>
  <clipPath id="p0c92042468">
   <rect x="58.11" y="10.8" width="345.09" height="129.011562"/>
  </clipPath>
 </defs>
</svg>
